<svg width="587" height="543" viewBox="0 0 587 543" fill="none" xmlns="http://www.w3.org/2000/svg">
<g clip-path="url(#clip0_265_3148)">
<path d="M587 525.774C587 536.298 458.809 543.013 300.671 543.013C142.533 543.013 14.342 536.298 14.342 525.774C14.342 515.25 142.533 510.339 300.671 510.339C458.809 510.339 587 515.25 587 525.774Z" fill="#E5E5E5"/>
<path d="M528.169 166.278C502.448 166.278 481.516 144.061 481.516 116.762C481.516 89.4626 502.448 67.2462 528.169 67.2462C553.889 67.2462 574.821 89.4626 574.821 116.762C574.821 144.061 553.889 166.278 528.169 166.278ZM528.169 72.5282C505.186 72.5282 486.493 92.369 486.493 116.762C486.493 141.155 505.186 160.995 528.169 160.995C551.151 160.995 569.845 141.155 569.845 116.762C569.845 92.369 551.151 72.5282 528.169 72.5282Z" fill="#E5E5E5"/>
<path d="M540.723 122.017H526.581C525.205 122.017 524.093 120.836 524.093 119.376V92.0239C524.093 90.5641 525.205 89.3829 526.581 89.3829C527.956 89.3829 529.069 90.5641 529.069 92.0239V116.749H540.723C542.098 116.749 543.211 117.93 543.211 119.39C543.211 120.836 542.098 122.017 540.723 122.017Z" fill="#E5E5E5"/>
<path d="M222.509 512.104H219.095C217.607 512.104 216.407 510.83 216.407 509.251L214.769 479.974C214.769 478.395 215.969 477.121 217.457 477.121H224.134C225.622 477.121 226.823 478.395 226.823 479.974L225.185 509.251C225.197 510.83 223.997 512.104 222.509 512.104Z" fill="#CCCCCC"/>
<path d="M248.079 503.053H244.666C243.178 503.053 241.977 501.779 241.977 500.2L240.339 470.923C240.339 469.344 241.54 468.07 243.028 468.07H249.705C251.193 468.07 252.393 469.344 252.393 470.923L250.755 500.2C250.768 501.779 249.567 503.053 248.079 503.053Z" fill="#CCCCCC"/>
<path d="M531.495 512.104H534.908C536.396 512.104 537.597 510.83 537.597 509.251L539.235 479.974C539.235 478.395 538.034 477.121 536.546 477.121H529.869C528.381 477.121 527.181 478.395 527.181 479.974L528.819 509.251C528.806 510.83 530.019 512.104 531.495 512.104Z" fill="#CCCCCC"/>
<path d="M505.924 503.053H509.338C510.826 503.053 512.026 501.779 512.026 500.2L513.664 470.923C513.664 469.344 512.464 468.07 510.976 468.07H504.299C502.811 468.07 501.61 469.344 501.61 470.923L503.248 500.2C503.236 501.779 504.436 503.053 505.924 503.053Z" fill="#CCCCCC"/>
<path d="M527.331 314.201C490.244 300.306 423.323 291.971 376.996 293.776C330.668 291.958 263.747 300.306 226.66 314.201C189.511 328.123 197.376 373.126 197.376 373.126L214.419 481.222L376.72 490.472V490.498L376.983 490.485L377.246 490.498V490.472L539.547 481.222L556.59 373.126C556.628 373.126 564.493 328.123 527.331 314.201Z" fill="#E5E5E5"/>
<path d="M195.7 361.991C195.7 361.991 214.494 373.126 223.672 405.137C232.849 437.147 230.661 454.32 230.661 454.32L203.565 452.927L195.7 361.991Z" fill="#E5E5E5"/>
<path d="M558.303 361.991C558.303 361.991 539.51 373.126 530.332 405.137C521.154 437.147 523.342 454.32 523.342 454.32L550.438 452.927L558.303 361.991Z" fill="#E5E5E5"/>
<path d="M212.218 413.378C212.218 413.378 218.707 394.931 252.631 394.002C286.542 393.073 333.857 390.75 353.038 395.86C372.219 400.969 372.444 418.129 372.444 418.129L212.218 413.378Z" fill="#CCCCCC"/>
<path d="M219.208 408.401C225.16 407.061 332.194 405.84 360.403 410.034C362.666 410.365 364.967 410.777 366.992 411.918C372.869 415.249 374.282 423.371 374.982 430.392C375.795 438.474 376.27 447.552 371.331 453.763C369.143 456.51 361.966 456.271 359.015 456.59C350.137 457.519 341.197 457.797 332.281 458.01C309.224 458.567 286.104 458.209 263.059 457.081C249.655 456.43 231.824 457.691 219.545 451.746C214.244 449.184 209.617 444.672 207.591 438.872C206.216 434.931 206.091 430.604 206.566 426.437C207.079 421.951 208.329 417.439 210.93 413.856C213.181 410.697 216.044 409.118 219.208 408.401Z" fill="#D6D6D6"/>
<path d="M543.098 413.843C543.098 413.843 536.609 395.395 502.686 394.466C468.775 393.537 421.46 391.215 402.278 396.324C383.097 401.434 382.872 418.594 382.872 418.594L543.098 413.843Z" fill="#CCCCCC"/>
<path d="M534.796 408.401C528.844 407.061 421.81 405.84 393.601 410.034C391.338 410.365 389.037 410.777 387.011 411.918C381.134 415.249 379.721 423.371 379.021 430.392C378.208 438.474 377.746 447.552 382.672 453.763C384.861 456.51 392.038 456.271 394.989 456.59C403.867 457.519 412.807 457.797 421.722 458.01C444.78 458.567 467.9 458.209 490.944 457.081C504.349 456.43 522.179 457.691 534.458 451.746C539.76 449.184 544.386 444.672 546.412 438.872C547.788 434.931 547.913 430.604 547.437 426.437C546.925 421.951 545.674 417.439 543.074 413.856C540.823 410.697 537.959 409.118 534.796 408.401Z" fill="#D6D6D6"/>
<path d="M585.912 377.293C584.799 370.06 574.984 355.488 559.254 361.978C543.524 368.468 554.49 424.46 540.023 445.946C533.971 454.944 498.359 455.316 462.21 455.687C420.959 456.112 378.884 455.701 377.045 455.687C377.045 455.687 377.033 455.687 377.008 455.687C376.983 455.687 376.97 455.687 376.97 455.687C375.12 455.701 333.044 456.112 291.806 455.687C255.669 455.316 220.045 454.931 213.993 445.946C199.526 424.446 210.492 368.468 194.762 361.978C179.032 355.488 169.204 370.06 168.104 377.293C163.852 405.03 178.219 459.708 203.953 479.828C220.558 492.821 258.52 490.127 299.696 490.419C339.146 490.697 375.77 490.286 377.02 490.273C378.271 490.286 414.895 490.697 454.345 490.419C495.521 490.127 533.47 492.821 550.088 479.828C575.796 459.708 590.164 405.03 585.912 377.293Z" fill="#E5E5E5"/>
<path d="M86.9903 182.163H2.31324C1.03783 182.163 0 181.062 0 179.708V66.4235C0 65.0698 1.03783 63.9683 2.31324 63.9683H86.9903C88.2657 63.9683 89.3035 65.0698 89.3035 66.4235V179.708C89.291 181.062 88.2657 182.163 86.9903 182.163Z" fill="#E5E5E5"/>
<path d="M81.451 72.5814H7.82751V173.285H81.451V72.5814Z" fill="white"/>
<path d="M69.5436 124.961C72.9711 109.764 64.1425 94.4953 49.8243 90.8574C35.5061 87.2195 21.1203 96.5899 17.6928 111.787C14.2653 126.984 23.0939 142.253 37.4121 145.89C51.7303 149.528 66.1161 140.158 69.5436 124.961Z" fill="#E5E5E5"/>
<path d="M151.236 45.0299V113.776C151.236 114.891 150.385 115.78 149.348 115.78H97.6311C96.5808 115.78 95.743 114.877 95.743 113.776V45.0299C95.743 43.9151 96.5933 43.0259 97.6311 43.0259H149.348C150.398 43.0126 151.236 43.9151 151.236 45.0299Z" fill="#E5E5E5"/>
<path d="M102.239 49.3935V109.394H144.753V49.3935H102.239Z" fill="white"/>
<mask id="mask0_265_3148" style="mask-type:luminance" maskUnits="userSpaceOnUse" x="102" y="49" width="43" height="61">
<path d="M102.239 49.3936V109.394H144.753V49.3936H102.239Z" fill="white"/>
</mask>
<g mask="url(#mask0_265_3148)">
<path d="M150.21 111.825C148.697 104.194 140.457 77.1733 139.094 75.4878C134.168 80.5841 130.804 84.2602 126.128 89.3432C123.627 86.1846 114.299 71.2808 114.011 71.3339C113.636 71.4002 95.0678 110.949 94.4677 112.82L150.21 111.825Z" fill="#E5E5E5"/>
</g>
<path d="M183.871 181.593H97.4186C96.6309 181.593 95.9932 180.916 95.9932 180.08V124.194C95.9932 123.358 96.6309 122.681 97.4186 122.681H183.871C184.659 122.681 185.297 123.358 185.297 124.194V180.08C185.297 180.916 184.659 181.593 183.871 181.593Z" fill="#E5E5E5"/>
<path d="M178.132 129.582H103.17V174.705H178.132V129.582Z" fill="white"/>
<path d="M127.053 142.11H108.21V162.11H127.053V142.11Z" fill="#E5E5E5"/>
<path d="M150.073 142.11H131.229V162.11H150.073V142.11Z" fill="#E5E5E5"/>
<path d="M173.08 142.11H154.237V162.11H173.08V142.11Z" fill="#E5E5E5"/>
<path d="M266.923 196.709C273.375 185.07 282.79 172.236 295.157 158.182C304.222 147.91 310.887 139.27 315.151 132.25C319.402 125.229 321.54 117.28 321.54 108.361C321.54 95.7002 317.489 85.6803 309.386 78.3146C301.284 70.9623 290.493 67.2728 277.026 67.2728C264.109 67.2728 252.643 70.6172 242.615 77.2927C232.587 83.9683 224.134 93.2981 217.269 105.282L167.403 68.8123C178.945 46.9012 194.537 29.9536 214.181 17.9695C233.812 5.99868 257.095 0 284.028 0C315.626 0 340.971 8.40081 360.077 25.1626C379.171 41.9377 388.724 65.229 388.724 95.0101C388.724 109.051 386.874 121.38 383.16 131.984C379.446 142.601 374.92 151.586 369.555 158.952C364.191 166.317 357.252 174.798 348.736 184.38C338.571 195.674 331.143 205.176 326.479 212.887C321.803 220.598 319.465 229.927 319.465 240.876H257.232C257.232 223.093 260.458 208.361 266.923 196.709ZM260.333 343.358C252.768 335.302 249.004 325.482 249.004 313.922C249.004 302.363 252.718 292.701 260.133 284.937C267.548 277.174 277.026 273.298 288.567 273.298C300.108 273.298 309.586 277.174 317.001 284.937C324.416 292.701 328.13 302.363 328.13 313.922C328.13 325.495 324.354 335.302 316.789 343.358C309.236 351.427 299.821 355.462 288.555 355.462C277.289 355.462 267.886 351.427 260.333 343.358Z" fill="#2D3962"/>
<path d="M134.293 116.828C135.543 114.572 137.369 112.09 139.77 109.356C141.533 107.366 142.821 105.694 143.646 104.327C144.471 102.973 144.884 101.42 144.884 99.6949C144.884 97.2397 144.096 95.3021 142.533 93.8688C140.957 92.4487 138.869 91.7321 136.256 91.7321C133.755 91.7321 131.529 92.3824 129.591 93.6697C127.641 94.9703 126.015 96.7752 124.677 99.0977L115.012 92.024C117.25 87.7772 120.276 84.4991 124.077 82.1634C127.878 79.8409 132.392 78.673 137.619 78.673C143.746 78.673 148.66 80.3054 152.361 83.5569C156.062 86.8084 157.913 91.3206 157.913 97.0937C157.913 99.8143 157.55 102.203 156.838 104.26C156.112 106.317 155.237 108.056 154.199 109.489C153.161 110.923 151.811 112.555 150.16 114.413C148.185 116.603 146.747 118.447 145.847 119.934C144.946 121.433 144.484 123.238 144.484 125.362H132.417C132.405 121.951 133.03 119.084 134.293 116.828ZM133.005 145.256C131.542 143.69 130.804 141.792 130.804 139.549C130.804 137.306 131.517 135.435 132.955 133.935C134.393 132.435 136.231 131.679 138.469 131.679C140.707 131.679 142.546 132.435 143.983 133.935C145.421 135.435 146.147 137.306 146.147 139.549C146.147 141.792 145.409 143.69 143.946 145.256C142.483 146.822 140.657 147.605 138.469 147.605C136.294 147.605 134.468 146.822 133.005 145.256Z" fill="#E5899D"/>
<path d="M168.129 505.508L168.804 490.578L154.799 490.233L154.537 507.154L168.129 505.508Z" fill="#E8B69C"/>
<path d="M168.829 498.952L154.637 498.594L154.474 505.323L168.279 504.818L168.829 498.952Z" fill="white"/>
<path d="M189.248 515.634C181.958 513.484 170.217 510.259 170.217 510.259L169.717 504.354L153.749 504.155C153.749 504.155 153.387 518.581 153.324 519.948C153.274 521.314 152.924 524.659 155.125 524.831C160.739 525.269 192.149 526.052 198.038 525.004C199.526 524.738 199.451 521.328 196.85 519.058C194.462 516.975 191.274 516.232 189.248 515.634Z" fill="#E5899D"/>
<path d="M167.616 518.076C167.341 518.076 167.053 517.997 166.753 517.837C166.366 517.625 165.74 517.094 165.878 515.873C166.015 514.613 168.866 509.941 169.629 508.985C169.754 508.826 169.967 508.76 170.154 508.813C170.342 508.866 170.492 509.039 170.517 509.251C170.754 510.79 170.442 515.422 169.041 517.254C168.641 517.798 168.154 518.076 167.616 518.076ZM169.567 510.923C168.466 512.662 166.966 515.369 166.891 516.006C166.816 516.683 167.103 516.829 167.216 516.895C167.516 517.054 167.841 517.134 168.254 516.59C169.104 515.462 169.504 512.768 169.567 510.923Z" fill="#2D3962"/>
<path d="M171.892 518.09C171.455 518.09 170.83 517.904 170.354 517.015C169.767 515.913 169.517 510.339 169.604 509.092C169.617 508.879 169.754 508.693 169.942 508.627C170.129 508.561 170.342 508.601 170.479 508.746C171.517 509.848 173.806 513.803 173.693 516.165C173.643 517.24 173.093 517.917 172.155 518.063C172.08 518.076 171.992 518.09 171.892 518.09ZM170.63 510.711C170.692 512.808 170.955 515.94 171.255 516.484C171.567 517.068 171.88 517.015 172.005 517.001C172.33 516.948 172.643 516.802 172.68 516.112C172.743 514.679 171.592 512.25 170.63 510.711Z" fill="#2D3962"/>
<path d="M198.713 523.451L153.574 522.761C153.286 522.761 153.061 522.509 153.074 522.217C153.074 521.912 153.324 521.673 153.587 521.686L198.713 522.376C199.001 522.376 199.226 522.628 199.214 522.92C199.214 523.212 198.989 523.451 198.713 523.451Z" fill="#2D3962"/>
<path d="M180.483 516.59C180.383 516.59 180.283 516.563 180.195 516.497C179.957 516.325 179.907 515.993 180.07 515.741C181.608 513.365 182.746 512.781 182.871 512.728C183.121 512.609 183.434 512.728 183.546 513.007C183.659 513.272 183.546 513.591 183.296 513.723C183.271 513.737 182.271 514.267 180.92 516.364C180.795 516.51 180.633 516.59 180.483 516.59Z" fill="#2D3962"/>
<path d="M177.369 515.794C177.269 515.794 177.169 515.767 177.082 515.701C176.856 515.528 176.794 515.196 176.956 514.944C178.494 512.569 179.632 511.985 179.757 511.932C180.007 511.812 180.32 511.932 180.433 512.21C180.545 512.476 180.433 512.794 180.183 512.927C180.158 512.94 179.17 513.471 177.807 515.568C177.694 515.701 177.532 515.794 177.369 515.794Z" fill="#2D3962"/>
<path d="M174.581 514.904C174.481 514.904 174.381 514.878 174.293 514.812C174.056 514.639 174.005 514.307 174.168 514.055C175.706 511.679 176.844 511.096 176.969 511.042C177.219 510.923 177.532 511.042 177.644 511.321C177.757 511.587 177.644 511.905 177.394 512.038C177.369 512.051 176.381 512.582 175.018 514.679C174.906 514.825 174.743 514.904 174.581 514.904Z" fill="#2D3962"/>
<path d="M115.112 505.508L114.437 490.578L128.441 490.233L128.704 507.154L115.112 505.508Z" fill="#E8B69C"/>
<path d="M114.411 498.952L128.604 498.594L128.766 505.323L114.962 504.818L114.411 498.952Z" fill="white"/>
<path d="M93.9925 515.634C101.282 513.484 113.024 510.259 113.024 510.259L113.524 504.354L129.491 504.155C129.491 504.155 129.854 518.581 129.917 519.948C129.967 521.314 130.317 524.659 128.116 524.831C122.502 525.269 91.0916 526.052 85.2022 525.004C83.7142 524.738 83.7893 521.328 86.3901 519.058C88.7784 516.975 91.9669 516.232 93.9925 515.634Z" fill="#E5899D"/>
<path d="M115.624 518.076C115.099 518.076 114.612 517.798 114.186 517.253C112.786 515.409 112.473 510.79 112.711 509.251C112.748 509.038 112.886 508.866 113.074 508.813C113.261 508.746 113.474 508.826 113.599 508.985C114.361 509.941 117.212 514.612 117.35 515.873C117.475 517.107 116.85 517.638 116.475 517.837C116.187 518.01 115.899 518.076 115.624 518.076ZM113.674 510.923C113.736 512.781 114.136 515.462 114.987 516.59C115.399 517.134 115.724 517.054 116.024 516.895C116.15 516.829 116.425 516.683 116.35 516.006C116.275 515.356 114.774 512.648 113.674 510.923Z" fill="#2D3962"/>
<path d="M111.348 518.09C111.26 518.09 111.173 518.076 111.085 518.063C110.148 517.917 109.61 517.24 109.547 516.165C109.422 513.803 111.723 509.861 112.761 508.747C112.898 508.601 113.111 508.547 113.299 508.627C113.486 508.707 113.611 508.879 113.636 509.092C113.724 510.339 113.474 515.9 112.886 517.015C112.511 517.718 111.973 518.09 111.348 518.09ZM112.623 510.711C111.648 512.25 110.498 514.692 110.573 516.125C110.61 516.816 110.91 516.962 111.248 517.015C111.385 517.041 111.686 517.081 111.998 516.497C112.286 515.926 112.561 512.794 112.623 510.711Z" fill="#2D3962"/>
<path d="M84.5269 523.451C84.2519 523.451 84.0268 523.212 84.0143 522.92C84.0143 522.615 84.2393 522.376 84.5144 522.376L129.641 521.686C129.941 521.673 130.154 521.925 130.154 522.217C130.154 522.522 129.929 522.761 129.654 522.761L84.5269 523.451Z" fill="#2D3962"/>
<path d="M102.77 516.59C102.608 516.59 102.445 516.51 102.345 516.351C100.97 514.228 99.9694 513.71 99.9694 513.71C99.7193 513.591 99.6068 513.259 99.7193 512.993C99.8319 512.728 100.132 512.609 100.382 512.728C100.507 512.781 101.645 513.378 103.183 515.741C103.345 515.993 103.283 516.325 103.058 516.497C102.97 516.55 102.87 516.59 102.77 516.59Z" fill="#2D3962"/>
<path d="M105.871 515.794C105.709 515.794 105.546 515.714 105.446 515.555C104.071 513.431 103.07 512.914 103.058 512.914C102.808 512.794 102.695 512.462 102.808 512.197C102.92 511.932 103.22 511.812 103.471 511.932C103.596 511.985 104.733 512.582 106.271 514.944C106.434 515.196 106.371 515.528 106.146 515.701C106.071 515.754 105.971 515.794 105.871 515.794Z" fill="#2D3962"/>
<path d="M108.66 514.904C108.497 514.904 108.335 514.825 108.235 514.666C106.859 512.542 105.859 512.025 105.846 512.025C105.596 511.905 105.484 511.573 105.596 511.308C105.709 511.042 106.009 510.923 106.259 511.042C106.384 511.109 107.522 511.693 109.06 514.055C109.222 514.307 109.16 514.639 108.935 514.812C108.86 514.878 108.76 514.904 108.66 514.904Z" fill="#2D3962"/>
<path d="M163.377 319.058C166.666 338.912 173.118 385.044 174.768 425.906C176.194 461.076 172.843 494.705 172.843 494.705L152.036 493.683L145.909 432.223L137.456 367.472L132.955 431.799L131.98 493.803L110.01 495.103C110.01 495.103 104.671 444.831 104.171 429.078C101.195 334.732 109.66 321.075 109.66 321.075L163.377 319.058Z" fill="#2D3962"/>
<path d="M69.3971 255.528L70.9601 260.916L84.0268 255.528C84.0268 255.528 77.1996 237.519 72.9107 237.107C68.6219 236.696 72.1355 242.907 72.1355 242.907C72.1355 242.907 69.3346 242.694 64.4205 241.526C62.4199 241.049 60.6818 239.987 59.3939 239.39C57.4058 238.474 55.9053 240.014 56.9682 241.526C58.1935 243.265 62.3199 244.765 62.3199 244.765C62.3199 244.765 60.4067 244.539 58.3811 244.194C56.3555 243.849 54.2423 243.358 53.8797 244.38C52.9919 246.941 56.1304 247.392 60.8319 247.963C60.8319 247.963 54.3673 247.419 54.1673 248.759C53.8171 251.029 57.2057 251.387 61.6446 251.958C61.6446 251.958 56.543 251.679 56.8056 254.24C57.0682 256.802 66.1086 255.528 66.1086 255.528H69.3971Z" fill="#E8B69C"/>
<path d="M65.4334 245.707C65.4209 245.707 65.4209 245.707 65.4084 245.707C62.2074 245.534 60.2317 244.672 60.1567 244.632C59.8941 244.513 59.7691 244.207 59.8816 243.929C59.9942 243.65 60.2943 243.517 60.5443 243.637C60.5693 243.65 62.4449 244.459 65.4584 244.619C65.7335 244.632 65.9586 244.884 65.9461 245.189C65.9336 245.481 65.7085 245.707 65.4334 245.707Z" fill="#2D3962"/>
<path d="M63.5953 248.945C60.6819 248.945 58.1311 248.242 58.006 248.202C57.7309 248.122 57.5684 247.83 57.6434 247.538C57.7184 247.246 57.9935 247.074 58.2686 247.154C58.2936 247.167 61.4071 248.029 64.5456 247.83C64.8457 247.817 65.0708 248.043 65.0833 248.335C65.0958 248.64 64.8832 248.892 64.6081 248.905C64.2705 248.945 63.9329 248.945 63.5953 248.945Z" fill="#2D3962"/>
<path d="M64.5831 252.582C63.3703 252.582 60.1192 252.396 59.9817 252.383C59.6941 252.369 59.4815 252.104 59.5065 251.812C59.519 251.507 59.7691 251.281 60.0442 251.308C60.0817 251.308 63.4078 251.507 64.5831 251.507C64.8707 251.507 65.0958 251.745 65.0958 252.051C65.0958 252.356 64.8707 252.582 64.5831 252.582Z" fill="#2D3962"/>
<path d="M206.478 255.528L204.915 260.916L191.849 255.528C191.849 255.528 198.676 237.519 202.965 237.107C207.254 236.696 203.74 242.907 203.74 242.907C203.74 242.907 206.541 242.694 211.455 241.526C213.456 241.049 215.194 239.987 216.482 239.39C218.47 238.474 219.97 240.014 218.907 241.526C217.682 243.265 213.556 244.765 213.556 244.765C213.556 244.765 215.469 244.539 217.494 244.194C219.52 243.849 221.633 243.358 221.996 244.38C222.884 246.941 219.745 247.392 215.044 247.963C215.044 247.963 221.508 247.419 221.721 248.759C222.071 251.029 218.682 251.387 214.243 251.958C214.243 251.958 219.345 251.679 219.082 254.24C218.82 256.802 209.767 255.528 209.767 255.528H206.478Z" fill="#E8B69C"/>
<path d="M210.442 245.707C210.167 245.707 209.942 245.481 209.93 245.189C209.917 244.884 210.13 244.632 210.417 244.619C213.431 244.459 215.319 243.637 215.331 243.637C215.594 243.517 215.894 243.65 215.994 243.929C216.107 244.207 215.982 244.526 215.719 244.632C215.631 244.672 213.668 245.521 210.467 245.707C210.467 245.707 210.455 245.707 210.442 245.707Z" fill="#2D3962"/>
<path d="M212.28 248.945C211.943 248.945 211.605 248.932 211.267 248.919C210.992 248.905 210.767 248.64 210.792 248.348C210.805 248.056 211.03 247.83 211.33 247.844C214.481 248.043 217.582 247.18 217.607 247.167C217.882 247.087 218.157 247.26 218.232 247.552C218.307 247.844 218.145 248.136 217.87 248.215C217.745 248.242 215.194 248.945 212.28 248.945Z" fill="#2D3962"/>
<path d="M211.292 252.582C211.005 252.582 210.78 252.343 210.78 252.037C210.78 251.732 211.005 251.493 211.292 251.493C212.48 251.493 215.806 251.294 215.831 251.294C216.081 251.281 216.357 251.507 216.369 251.799C216.382 252.091 216.169 252.356 215.894 252.369C215.756 252.396 212.505 252.582 211.292 252.582Z" fill="#2D3962"/>
<path d="M106.659 326.782C106.659 326.782 94.9929 265.442 116.162 246.092C120.088 242.509 127.428 242.668 133.605 242.124C141.783 241.407 153.937 241.885 158.526 247.22C176.119 267.671 165.953 327.353 165.953 327.353L106.659 326.782Z" fill="#E5899D"/>
<g opacity="0.54">
<path d="M168.491 303.929C167.691 317.253 165.966 327.366 165.966 327.366L106.659 326.795C106.659 326.795 105.584 321.142 104.683 312.741C104.683 312.741 119.838 315.687 141.883 313.351C163.927 310.989 168.491 303.929 168.491 303.929Z" fill="#C9778C"/>
</g>
<path d="M68.3093 260.053L85.1022 253.736L90.5164 270.697C90.5164 270.697 107.034 244.539 122.464 243.398C137.894 242.243 115.424 283.637 115.424 283.637C115.424 283.637 104.321 304.048 88.8909 306.623C73.4485 309.197 68.3093 260.053 68.3093 260.053Z" fill="#E5899D"/>
<path d="M206.941 260.053L190.148 253.736L184.734 270.697C184.734 270.697 168.216 244.539 152.786 243.398C137.356 242.243 159.826 283.637 159.826 283.637C159.826 283.637 170.93 304.048 186.36 306.623C201.802 309.197 206.941 260.053 206.941 260.053Z" fill="#E5899D"/>
<path d="M104.233 308.016C103.971 308.016 103.746 307.804 103.721 307.525C103.095 300.226 102.433 291.825 102.433 291.825L103.446 291.732C103.446 291.732 104.108 300.133 104.733 307.432C104.758 307.724 104.546 307.99 104.271 308.016C104.271 308.016 104.258 308.016 104.233 308.016Z" fill="#2D3962"/>
<path d="M167.328 309.343C167.316 309.343 167.291 309.343 167.278 309.343C167.003 309.317 166.791 309.051 166.828 308.746L168.491 291.493C168.516 291.201 168.766 290.963 169.054 291.016C169.329 291.042 169.542 291.308 169.504 291.613L167.841 308.866C167.816 309.131 167.591 309.343 167.328 309.343Z" fill="#2D3962"/>
<path d="M110.635 200.385C110.635 200.385 103.921 230.073 114.762 234.758C119.025 236.603 151.711 242.164 164.44 234.758C172.968 229.795 167.916 205.242 166.416 199.921C164.915 194.599 110.635 200.385 110.635 200.385Z" fill="#2D3962"/>
<path d="M140.707 238.66C108.672 238.514 112.811 202.256 113.374 198.222C113.411 197.956 113.436 197.691 113.461 197.426L113.499 196.921C114.024 190.485 119.051 185.508 125.14 185.428L151.824 185.017C158 184.924 163.227 189.874 163.802 196.404C165.178 212.25 164.002 238.766 140.707 238.66Z" fill="#E8B69C"/>
<path d="M147.372 211.507C147.197 212.781 146.084 213.683 144.884 213.497C143.683 213.311 142.833 212.13 143.008 210.856C143.183 209.582 144.296 208.68 145.496 208.866C146.709 209.051 147.547 210.233 147.372 211.507Z" fill="#2D3962"/>
<path d="M131.629 210.564C131.942 209.317 133.142 208.56 134.318 208.892C135.493 209.224 136.206 210.498 135.893 211.745C135.581 212.993 134.38 213.749 133.205 213.418C132.017 213.099 131.317 211.812 131.629 210.564Z" fill="#2D3962"/>
<path d="M114.524 209.343C112.023 208.746 107.297 207.751 105.446 209.98C103.871 211.878 104.308 214.864 106.259 216.444C109.435 219.018 114.749 219.337 116.35 219.549" fill="#E8B69C"/>
<path d="M132.205 234.904L131.279 244.035L147.335 244.367L146.584 234.466L132.205 234.904Z" fill="#E8B69C"/>
<path d="M143.458 204.566C144.021 203.968 145.146 204.035 145.972 204.114C146.747 204.194 148.147 204.287 148.735 204.858C149.048 205.15 149.135 205.614 148.998 205.986C148.81 206.49 148.26 206.769 147.71 206.862C147.222 206.941 146.709 206.901 146.209 206.862C145.534 206.808 144.846 206.755 144.171 206.662C144.008 206.636 143.833 206.623 143.683 206.543C143.283 206.331 143.158 205.561 143.183 205.216C143.208 204.937 143.308 204.725 143.458 204.566Z" fill="#2D3962"/>
<path d="M135.543 204.579C135.018 203.942 133.893 203.929 133.067 203.955C132.292 203.982 130.892 203.968 130.267 204.499C129.941 204.778 129.816 205.229 129.929 205.601C130.091 206.118 130.617 206.437 131.167 206.57C131.642 206.689 132.167 206.689 132.667 206.676C133.355 206.676 134.03 206.663 134.718 206.636C134.88 206.623 135.056 206.623 135.218 206.543C135.631 206.357 135.806 205.601 135.793 205.256C135.781 204.977 135.693 204.751 135.543 204.579Z" fill="#2D3962"/>
<path d="M128.128 196.935C128.128 196.935 129.504 201.606 130.167 201.619C132.455 201.659 134.956 201.686 137.719 201.686C141.333 201.686 144.609 201.633 147.56 201.526C148.31 201.5 149.385 195.687 149.385 195.687C149.385 195.687 150.998 201.394 151.586 201.354C152.749 201.288 153.849 201.221 154.887 201.155C155.487 201.115 156.375 197.054 156.375 197.054C156.375 197.054 157.838 200.929 158.401 200.876C162.439 200.518 165.103 200.133 166.403 199.921C166.903 199.841 167.241 199.27 167.128 198.7C163.965 182.92 151.861 173.763 137.444 173.736C123.052 173.71 113.024 183.092 109.773 198.793C109.623 199.509 110.023 200.226 110.635 200.385C112.173 200.783 113.799 201.035 122.189 201.394L125.29 201.487L128.128 196.935Z" fill="#2D3962"/>
<path d="M147.186 183.643C152.215 178.566 152.414 170.123 147.631 164.786C142.848 159.448 134.894 159.237 129.865 164.314C124.836 169.39 124.637 177.833 129.42 183.171C134.203 188.508 142.157 188.72 147.186 183.643Z" fill="#2D3962"/>
<path d="M139.219 216.643C139.207 216.643 139.207 216.643 139.194 216.643C138.919 216.629 138.694 216.377 138.707 216.072C138.719 215.913 138.719 215.687 138.719 215.435C138.732 214.984 138.744 214.453 138.769 214.134C138.794 213.842 139.057 213.63 139.319 213.643C139.594 213.67 139.807 213.935 139.782 214.227C139.757 214.532 139.745 215.024 139.732 215.448C139.732 215.714 139.719 215.939 139.719 216.112C139.719 216.417 139.494 216.643 139.219 216.643Z" fill="#2D3962"/>
<path d="M139.094 218.554C138.694 218.554 138.344 218.448 138.044 218.249C137.444 217.85 137.194 217.041 137.456 216.417C137.581 216.138 137.794 215.899 138.082 215.727C138.557 215.448 138.969 215.554 139.332 215.661C139.607 215.74 139.77 216.032 139.695 216.324C139.62 216.616 139.344 216.789 139.082 216.709H139.069C138.744 216.616 138.682 216.616 138.582 216.669C138.494 216.722 138.419 216.789 138.394 216.855C138.332 216.988 138.432 217.213 138.594 217.333C138.857 217.519 139.244 217.466 139.444 217.426C139.72 217.359 139.995 217.558 140.045 217.85C140.095 218.142 139.92 218.434 139.645 218.487C139.457 218.527 139.269 218.554 139.094 218.554Z" fill="#2D3962"/>
<path d="M107.584 214.333C107.559 214.333 107.522 214.333 107.497 214.32C107.222 214.267 107.034 213.988 107.084 213.696C107.297 212.502 108.122 211.427 109.197 210.989C109.46 210.883 109.76 211.016 109.86 211.294C109.96 211.573 109.835 211.891 109.572 211.998C108.822 212.303 108.247 213.059 108.097 213.895C108.047 214.148 107.822 214.333 107.584 214.333Z" fill="#2D3962"/>
<path d="M110.148 214.798C110.085 214.798 110.023 214.785 109.96 214.758C108.947 214.32 108.235 213.55 107.847 212.475C107.747 212.197 107.884 211.878 108.147 211.772C108.41 211.666 108.71 211.799 108.81 212.091C109.097 212.887 109.597 213.444 110.348 213.763C110.61 213.869 110.735 214.187 110.623 214.466C110.535 214.678 110.348 214.798 110.148 214.798Z" fill="#2D3962"/>
<path d="M140.007 223.836C139.382 223.836 138.757 223.703 138.169 223.451C137.907 223.331 137.794 223.013 137.894 222.747C138.007 222.469 138.307 222.349 138.557 222.455C139.932 223.066 141.683 222.708 142.746 221.593C142.946 221.381 143.271 221.381 143.471 221.593C143.671 221.805 143.671 222.15 143.471 222.363C142.571 223.318 141.283 223.836 140.007 223.836Z" fill="#2D3962"/>
<path d="M124.615 173.988C125.327 171.984 127.478 171.361 129.766 171.626C131.667 171.852 133.418 172.953 135.318 172.913C137.594 172.86 139.62 171.188 141.883 171.44C143.896 171.666 145.546 173.365 147.572 173.365C148.335 173.365 149.085 173.112 149.835 173.219C151.248 173.418 152.211 174.931 151.986 176.258C151.761 177.585 150.598 178.647 149.273 179.111C148.497 179.39 147.66 179.483 146.834 179.416C145.246 179.284 143.771 178.514 142.183 178.394C140.82 178.288 139.494 178.673 138.169 178.978C134.28 179.854 130.079 180.239 126.128 179.284C124.127 178.793 124.165 175.979 124.477 174.506C124.515 174.333 124.565 174.161 124.615 173.988Z" fill="#E5899D"/>
<path d="M161.927 209.343C164.427 208.746 169.154 207.751 171.005 209.98C172.58 211.878 172.142 214.864 170.192 216.444C167.016 219.018 161.702 219.337 160.101 219.549" fill="#E8B69C"/>
<path d="M168.866 214.333C168.629 214.333 168.416 214.148 168.366 213.895C168.216 213.059 167.641 212.316 166.891 211.998C166.628 211.891 166.503 211.573 166.603 211.294C166.703 211.016 167.003 210.883 167.266 210.989C168.341 211.427 169.167 212.502 169.379 213.696C169.429 213.988 169.242 214.267 168.966 214.333C168.929 214.32 168.904 214.333 168.866 214.333Z" fill="#2D3962"/>
<path d="M166.316 214.798C166.116 214.798 165.928 214.665 165.84 214.466C165.74 214.187 165.865 213.869 166.116 213.763C166.866 213.444 167.366 212.9 167.654 212.09C167.754 211.812 168.041 211.679 168.316 211.772C168.579 211.878 168.716 212.197 168.616 212.475C168.229 213.564 167.516 214.333 166.503 214.758C166.441 214.785 166.378 214.798 166.316 214.798Z" fill="#2D3962"/>
<path d="M140.595 245.574C140.107 245.574 139.607 245.561 139.094 245.521C135.881 245.282 132.23 244.751 129.479 242.588C129.254 242.416 129.204 242.071 129.379 241.832C129.541 241.593 129.866 241.54 130.092 241.726C132.63 243.73 136.106 244.221 139.169 244.446C142.646 244.698 145.747 244.035 148.147 242.535C148.385 242.376 148.697 242.469 148.848 242.721C148.985 242.973 148.91 243.305 148.672 243.464C146.447 244.844 143.683 245.574 140.595 245.574Z" fill="#2D3962"/>
<path d="M435.414 93.6298C436.665 91.3737 438.49 88.8919 440.891 86.158C442.654 84.1673 443.942 82.4951 444.767 81.1281C445.592 79.7745 446.005 78.2217 446.005 76.4964C446.005 74.0412 445.217 72.1036 443.654 70.6703C442.079 69.2502 439.991 68.5336 437.377 68.5336C434.876 68.5336 432.651 69.1839 430.713 70.4712C428.762 71.7718 427.136 73.5767 425.799 75.8992L416.133 68.8255C418.371 64.5787 421.397 61.3006 425.198 58.9649C429 56.6424 433.514 55.4745 438.74 55.4745C444.867 55.4745 449.781 57.1069 453.482 60.3584C457.184 63.6099 459.034 68.1221 459.034 73.8952C459.034 76.6159 458.672 79.0047 457.959 81.0618C457.234 83.1189 456.358 84.8574 455.32 86.2907C454.283 87.724 452.932 89.3564 451.282 91.2144C449.306 93.4042 447.868 95.2489 446.968 96.7353C446.067 98.235 445.605 100.04 445.605 102.163H433.539C433.539 98.7393 434.164 95.886 435.414 93.6298ZM434.126 122.057C432.663 120.491 431.925 118.593 431.925 116.35C431.925 114.108 432.638 112.236 434.089 110.737C435.527 109.237 437.365 108.481 439.603 108.481C441.841 108.481 443.679 109.237 445.117 110.737C446.555 112.236 447.268 114.108 447.268 116.35C447.268 118.593 446.53 120.491 445.067 122.057C443.604 123.623 441.779 124.406 439.59 124.406C437.415 124.393 435.602 123.61 434.126 122.057Z" fill="#738BFF"/>
<path d="M345.298 292.21L347.724 302.522C347.724 302.522 383.548 296.722 393.563 287.698C403.579 278.673 413.295 255.793 413.295 255.793L417.959 207.791C417.959 207.791 406.605 209.396 400.24 223.252C393.876 237.107 381.422 269.98 381.422 269.98L345.298 292.21Z" fill="#E8B69C"/>
<path d="M349.049 293.338C348.311 290.299 351.512 288.454 344.16 290.418C340.284 291.454 335.595 290.963 332.294 291.56C330.606 291.865 329.955 292.821 329.73 293.378C329.368 294.307 329.98 294.984 329.98 294.984C328.717 295.621 329.193 297.412 329.318 297.784C329.555 298.501 330.381 298.74 330.381 298.74C330.381 298.74 329.43 299.363 329.755 301.022C329.955 302.031 330.356 302.522 331.081 302.628C331.081 302.628 330.881 304.698 332.506 304.884C333.306 304.964 338.183 305.269 346.573 303.066C351.737 301.699 350.612 299.974 349.899 297.054L349.049 293.338Z" fill="#E8B69C"/>
<path d="M336.583 287.353C337.458 285.681 340.559 286.729 343.135 287.857C344.36 288.388 346.048 288.945 346.598 289.688C347.399 290.777 341.984 291.852 341.984 291.852C341.984 291.852 334.845 290.71 336.583 287.353Z" fill="#E8B69C"/>
<path d="M332.094 302.933C331.844 302.933 331.631 302.748 331.581 302.482C331.531 302.19 331.719 301.898 331.994 301.845L340.171 300.292L340.234 300.691V300.704L340.559 300.372C340.721 300.505 340.809 300.717 340.759 300.929C340.709 301.142 340.546 301.314 340.346 301.354L332.169 302.907C332.156 302.933 332.119 302.933 332.094 302.933Z" fill="#2D3962"/>
<path d="M330.243 299.231C329.968 299.231 329.743 299.005 329.73 298.713C329.718 298.408 329.93 298.156 330.218 298.142C332.444 298.023 337.433 297.492 339.496 297.134C339.759 297.081 340.046 297.28 340.084 297.585C340.134 297.877 339.946 298.169 339.659 298.209C337.57 298.58 332.519 299.111 330.268 299.231C330.256 299.231 330.243 299.231 330.243 299.231Z" fill="#2D3962"/>
<path d="M330.08 295.342C329.805 295.342 329.58 295.116 329.568 294.824C329.555 294.519 329.768 294.267 330.055 294.254C330.843 294.214 331.969 294.187 333.194 294.148C335.457 294.095 338.008 294.028 339.446 293.856C339.721 293.816 339.984 294.041 340.009 294.333C340.046 294.639 339.834 294.904 339.558 294.931C338.083 295.103 335.495 295.17 333.219 295.236C332.006 295.262 330.893 295.289 330.118 295.342C330.093 295.342 330.093 295.342 330.08 295.342Z" fill="#2D3962"/>
<path d="M340.971 291.547C340.921 291.547 340.871 291.547 340.821 291.52C339.433 291.095 338.045 290.591 336.695 290.047C336.432 289.941 336.295 289.622 336.395 289.343C336.495 289.065 336.795 288.919 337.058 289.025C338.383 289.556 339.746 290.047 341.109 290.472C341.384 290.551 341.534 290.856 341.459 291.148C341.396 291.401 341.196 291.547 340.971 291.547Z" fill="#2D3962"/>
<path d="M464.661 508.428L463.986 493.378L478.103 493.02L478.378 510.1L464.661 508.428Z" fill="#E8B69C"/>
<path d="M463.961 501.832L478.265 501.46L478.428 508.242L464.498 507.751L463.961 501.832Z" fill="white"/>
<path d="M443.354 518.66C450.719 516.497 462.56 513.245 462.56 513.245L463.073 507.287L479.178 507.074C479.178 507.074 479.553 521.62 479.603 523.013C479.653 524.393 480.003 527.764 477.778 527.937C472.113 528.375 440.428 529.171 434.489 528.109C432.988 527.844 433.063 524.407 435.689 522.124C438.09 520.001 441.316 519.257 443.354 518.66Z" fill="#738BFF"/>
<path d="M465.174 521.115C464.649 521.115 464.148 520.837 463.736 520.279C462.335 518.421 462.01 513.763 462.248 512.197C462.285 511.985 462.423 511.812 462.623 511.759C462.823 511.706 463.023 511.772 463.148 511.931C463.911 512.887 466.799 517.612 466.937 518.886C467.062 520.133 466.437 520.664 466.049 520.876C465.736 521.036 465.449 521.115 465.174 521.115ZM463.211 513.896C463.273 515.767 463.686 518.488 464.536 519.602C464.949 520.147 465.286 520.067 465.574 519.908C465.699 519.841 465.974 519.695 465.911 519.018C465.836 518.381 464.311 515.648 463.211 513.896Z" fill="#2D3962"/>
<path d="M460.86 521.129C460.76 521.129 460.672 521.115 460.597 521.102C459.659 520.943 459.109 520.266 459.047 519.191C458.922 516.815 461.235 512.834 462.285 511.706C462.423 511.56 462.635 511.507 462.823 511.573C463.01 511.653 463.148 511.825 463.16 512.038C463.248 513.298 462.998 518.899 462.41 520.027C461.935 520.943 461.297 521.129 460.86 521.129ZM462.135 513.683C461.16 515.236 459.997 517.691 460.072 519.138C460.109 519.828 460.422 519.974 460.747 520.027C460.885 520.054 461.197 520.093 461.51 519.509C461.81 518.952 462.085 515.793 462.135 513.683Z" fill="#2D3962"/>
<path d="M433.801 526.53C433.526 526.53 433.288 526.291 433.288 525.986C433.288 525.681 433.514 525.442 433.801 525.428L479.328 524.725C479.328 524.725 479.328 524.725 479.341 524.725C479.616 524.725 479.853 524.964 479.853 525.269C479.853 525.574 479.628 525.813 479.341 525.827L433.801 526.53Z" fill="#2D3962"/>
<path d="M452.207 519.616C452.044 519.616 451.882 519.536 451.782 519.377C450.394 517.24 449.394 516.723 449.381 516.709C449.131 516.577 449.018 516.258 449.131 515.993C449.243 515.727 449.544 515.608 449.806 515.714C449.931 515.767 451.082 516.364 452.632 518.753C452.795 519.005 452.732 519.337 452.495 519.51C452.407 519.576 452.307 519.616 452.207 519.616Z" fill="#2D3962"/>
<path d="M455.333 518.806C455.17 518.806 455.008 518.727 454.908 518.567C453.52 516.431 452.52 515.913 452.507 515.9C452.257 515.767 452.145 515.449 452.257 515.183C452.37 514.904 452.67 514.798 452.932 514.904C453.057 514.958 454.208 515.555 455.758 517.944C455.921 518.196 455.858 518.528 455.621 518.7C455.533 518.78 455.433 518.806 455.333 518.806Z" fill="#2D3962"/>
<path d="M458.146 517.917C457.984 517.917 457.821 517.837 457.721 517.678C456.333 515.541 455.333 515.024 455.321 515.011C455.07 514.878 454.958 514.559 455.07 514.294C455.183 514.028 455.483 513.909 455.746 514.015C455.871 514.068 457.021 514.665 458.572 517.054C458.734 517.306 458.672 517.638 458.434 517.811C458.359 517.89 458.246 517.917 458.146 517.917Z" fill="#2D3962"/>
<path d="M423.598 508.428L422.923 493.378L437.052 493.02L437.315 510.1L423.598 508.428Z" fill="#E8B69C"/>
<path d="M422.898 501.832L437.215 501.46L437.365 508.242L423.448 507.751L422.898 501.832Z" fill="white"/>
<path d="M402.291 518.66C409.656 516.497 421.497 513.245 421.497 513.245L422.01 507.287L438.115 507.074C438.115 507.074 438.49 521.62 438.54 523.013C438.59 524.393 438.94 527.764 436.714 527.937C431.05 528.375 399.365 529.171 393.426 528.109C391.925 527.844 392 524.407 394.626 522.124C397.027 520.001 400.253 519.257 402.291 518.66Z" fill="#738BFF"/>
<path d="M424.11 521.115C423.585 521.115 423.085 520.837 422.672 520.279C421.272 518.421 420.947 513.763 421.185 512.197C421.222 511.985 421.36 511.812 421.56 511.759C421.76 511.706 421.96 511.772 422.085 511.931C422.848 512.887 425.736 517.612 425.874 518.886C425.999 520.133 425.373 520.664 424.986 520.876C424.686 521.036 424.398 521.115 424.11 521.115ZM422.147 513.896C422.21 515.767 422.623 518.488 423.473 519.602C423.885 520.147 424.223 520.067 424.511 519.908C424.636 519.841 424.911 519.695 424.836 519.018C424.773 518.381 423.26 515.648 422.147 513.896Z" fill="#2D3962"/>
<path d="M419.797 521.129C419.697 521.129 419.609 521.115 419.534 521.102C418.596 520.943 418.034 520.266 417.984 519.191C417.858 516.802 420.172 512.821 421.222 511.706C421.36 511.56 421.572 511.507 421.76 511.573C421.947 511.653 422.072 511.825 422.097 512.038C422.185 513.298 421.935 518.899 421.347 520.027C420.872 520.943 420.247 521.129 419.797 521.129ZM421.085 513.683C420.109 515.236 418.946 517.691 419.021 519.138C419.059 519.828 419.371 519.974 419.697 520.027C419.834 520.054 420.147 520.093 420.459 519.509C420.747 518.952 421.022 515.793 421.085 513.683Z" fill="#2D3962"/>
<path d="M392.75 526.53C392.475 526.53 392.238 526.291 392.238 525.986C392.238 525.681 392.463 525.442 392.75 525.428L438.278 524.725C438.278 524.725 438.277 524.725 438.29 524.725C438.565 524.725 438.803 524.964 438.803 525.269C438.803 525.574 438.578 525.813 438.29 525.827L392.75 526.53Z" fill="#2D3962"/>
<path d="M411.144 519.616C410.981 519.616 410.819 519.536 410.719 519.377C409.331 517.24 408.33 516.723 408.318 516.709C408.068 516.577 407.955 516.258 408.068 515.993C408.18 515.727 408.48 515.608 408.743 515.714C408.868 515.767 410.018 516.364 411.569 518.753C411.732 519.005 411.669 519.337 411.431 519.51C411.344 519.576 411.244 519.616 411.144 519.616Z" fill="#2D3962"/>
<path d="M414.282 518.806C414.12 518.806 413.957 518.727 413.857 518.567C412.469 516.431 411.469 515.913 411.456 515.9C411.206 515.767 411.094 515.449 411.206 515.183C411.319 514.904 411.619 514.798 411.882 514.904C412.007 514.958 413.157 515.555 414.707 517.944C414.87 518.196 414.807 518.528 414.57 518.7C414.482 518.78 414.382 518.806 414.282 518.806Z" fill="#2D3962"/>
<path d="M417.096 517.917C416.933 517.917 416.771 517.837 416.671 517.678C415.283 515.541 414.282 515.024 414.27 515.011C414.02 514.878 413.907 514.559 414.02 514.294C414.132 514.028 414.432 513.909 414.695 514.015C414.82 514.068 415.97 514.665 417.521 517.054C417.683 517.306 417.621 517.638 417.383 517.811C417.296 517.89 417.196 517.917 417.096 517.917Z" fill="#2D3962"/>
<path d="M473.539 296.47C477.027 319.098 479.603 375.979 481.366 422.549C482.879 462.642 483.592 494.891 483.592 494.891L461.522 495.488L452.119 426.225L446.055 360.571L441.278 424.964L440.241 495.634L416.946 496.059C416.946 496.059 411.281 439.815 410.756 421.859C407.605 314.334 416.583 298.753 416.583 298.753L473.539 296.47Z" fill="#2D3962"/>
<path d="M464.961 208.215L500.647 190.604L471.888 172.356L467.337 175.899C467.337 175.899 464.411 179.775 461.072 180.412L463.273 158.368C463.273 158.368 521.604 172.236 527.068 188.68C532.533 205.11 476.152 234.878 476.152 234.878L464.961 208.215Z" fill="#E8B69C"/>
<path d="M406.63 330.352C406.63 330.352 408.493 309.888 408.393 286.158C408.255 251.732 407.293 209.741 417.971 207.804C436.014 204.526 462.335 199.284 469.513 209.994C479.041 224.207 477.453 254.241 478.415 280.797C479.378 307.393 480.166 330.219 480.166 330.219L406.63 330.352Z" fill="#738BFF"/>
<g opacity="0.58">
<path d="M479.178 301.898C479.766 318.421 480.166 330.219 480.166 330.219L406.63 330.352C406.63 330.352 406.955 329.675 407.443 320.253C407.443 320.253 438.59 318.527 455.421 315.448C472.251 312.369 479.178 301.898 479.178 301.898Z" fill="#5B77DD"/>
</g>
<path d="M421.41 207.459C421.41 207.459 412.594 205.906 403.566 214.984C398.102 220.478 393.338 232.648 388.174 243.517L417.008 261.155L421.41 207.459Z" fill="#738BFF"/>
<path d="M460.235 204.765L490.082 193.484L499.235 227.353L475.902 240.836L460.235 204.765Z" fill="#738BFF"/>
<path d="M457.421 252.754C457.321 252.754 457.209 252.728 457.121 252.661L448.043 246.238C447.893 246.132 447.793 245.946 447.806 245.747L448.043 239.815C448.056 239.509 448.293 239.27 448.581 239.27H466.274C466.574 239.27 466.812 239.523 466.812 239.841V246.755C466.812 246.955 466.712 247.14 466.549 247.247L457.709 252.688C457.609 252.728 457.509 252.754 457.421 252.754ZM448.893 245.468L457.446 251.52L465.736 246.424V240.398H449.094L448.893 245.468Z" fill="#2D3962"/>
<path d="M408.743 268.414C408.456 268.414 408.218 268.176 408.205 267.87L407.655 249.861C407.643 249.543 407.88 249.29 408.168 249.277C408.456 249.277 408.706 249.516 408.718 249.821L409.268 267.831C409.281 268.149 409.043 268.401 408.756 268.414C408.756 268.414 408.756 268.414 408.743 268.414Z" fill="#2D3962"/>
<path d="M418.859 155.515C418.859 155.515 414.72 172.887 415.758 183.491C416.746 193.511 422.735 199.974 431.175 199.974L431.963 206.875C431.963 206.875 443.204 210.06 454.133 206.649L454.308 190.777L454.208 157.187L450.169 150.551L422.01 146.145L418.859 155.515Z" fill="#E8B69C"/>
<path d="M435.164 169.887C435.039 170.843 434.214 171.507 433.313 171.374C432.413 171.241 431.788 170.365 431.913 169.41C432.038 168.454 432.863 167.791 433.764 167.923C434.664 168.056 435.289 168.945 435.164 169.887Z" fill="#2D3962"/>
<path d="M425.911 168.693C425.786 169.649 424.961 170.312 424.061 170.179C423.16 170.047 422.535 169.171 422.66 168.215C422.785 167.26 423.61 166.596 424.511 166.729C425.411 166.862 426.036 167.737 425.911 168.693Z" fill="#2D3962"/>
<path d="M443.467 196.895C442.341 198.129 432.138 204.367 431.725 204.552C431.725 204.552 431.113 199.005 431.163 199.708C431.188 200 433.389 200.133 436.152 199.284C438.615 198.527 441.191 197.293 442.767 196.47L443.467 196.895Z" fill="#2D3962"/>
<path d="M431.475 200.863C428.237 200.863 425.236 199.881 422.46 197.93C422.21 197.757 422.147 197.399 422.31 197.147C422.473 196.882 422.81 196.815 423.048 196.988C428.587 200.903 435.202 200.611 442.704 196.138C442.967 195.979 443.279 196.085 443.429 196.351C443.579 196.629 443.479 196.974 443.229 197.12C439.053 199.615 435.127 200.863 431.475 200.863Z" fill="#2D3962"/>
<path d="M432.026 163.092C433.151 162.177 436.064 163.146 436.877 163.637C436.877 163.637 437.427 164.552 436.702 165.375C435.852 166.331 433.138 165.495 432.113 165.335C432.026 165.322 431.938 165.309 431.876 165.256C431.788 165.189 431.75 165.083 431.725 164.977C431.613 164.592 431.513 164.167 431.613 163.769C431.675 163.477 431.825 163.252 432.026 163.092Z" fill="#2D3962"/>
<path d="M421.985 161.978C423.098 161.035 426.024 161.951 426.849 162.416C426.849 162.416 427.424 163.318 426.711 164.154C425.886 165.123 423.148 164.34 422.122 164.207C422.035 164.194 421.947 164.181 421.885 164.128C421.797 164.061 421.76 163.955 421.722 163.849C421.597 163.464 421.497 163.053 421.585 162.654C421.647 162.363 421.785 162.137 421.985 161.978Z" fill="#2D3962"/>
<path d="M451.457 173.962C454.245 172.847 459.522 170.896 461.998 173.152C464.098 175.063 464.036 178.58 462.048 180.73C458.784 184.234 452.72 185.508 450.907 186.025" fill="#E8B69C"/>
<path d="M460.085 176.988C460.01 176.988 459.935 176.974 459.872 176.935C457.959 176.019 456.571 176.656 456.508 176.682C456.246 176.802 455.921 176.682 455.808 176.39C455.683 176.112 455.808 175.767 456.071 175.647C456.146 175.607 457.921 174.771 460.31 175.899C460.572 176.032 460.697 176.364 460.572 176.643C460.472 176.868 460.285 176.988 460.085 176.988Z" fill="#2D3962"/>
<path d="M457.284 179.735C457.171 179.735 457.059 179.695 456.959 179.615C456.721 179.43 456.683 179.071 456.859 178.819C456.859 178.806 457.471 177.943 458.134 176.271C458.246 175.979 458.559 175.846 458.834 175.966C459.109 176.085 459.234 176.417 459.122 176.709C458.397 178.54 457.734 179.469 457.709 179.509C457.609 179.655 457.446 179.735 457.284 179.735Z" fill="#2D3962"/>
<path d="M435.802 138.713C437.915 138.753 450.907 139.337 455.983 141.049C458.684 141.951 461.36 143.384 463.048 145.813C464.298 147.618 464.899 149.834 465.211 152.051C466.024 157.917 463.148 174.068 463.148 174.068C463.148 174.068 461.072 172.329 457.434 172.502C456.458 172.555 454.62 172.953 453.783 173.179C453.395 173.272 453.32 181.487 452.97 181.473L448.331 180.903C447.993 180.889 448.593 159.363 448.393 159.084C447.506 157.837 443.954 154.373 438.34 155.023C431.475 155.82 423.048 158.607 417.383 154.798C413.77 152.369 412.032 146.954 413.307 142.071C413.407 141.712 415.695 135.846 422.56 136.019C425.761 136.125 430.875 138.62 435.802 138.713Z" fill="#2D3962"/>
<path d="M428.137 174.4C428.124 174.4 428.124 174.4 428.112 174.4C427.812 174.386 427.587 174.121 427.599 173.802C427.612 173.63 427.612 173.391 427.612 173.112C427.624 172.635 427.637 172.104 427.662 171.772C427.687 171.467 427.924 171.228 428.237 171.254C428.537 171.281 428.75 171.56 428.725 171.865C428.7 172.17 428.687 172.688 428.675 173.126C428.675 173.404 428.662 173.67 428.65 173.842C428.65 174.161 428.412 174.4 428.137 174.4Z" fill="#2D3962"/>
<path d="M427.999 176.39C427.649 176.39 427.262 176.311 426.899 176.072C426.274 175.647 426.011 174.811 426.286 174.148C426.411 173.856 426.636 173.603 426.936 173.431C427.437 173.126 427.874 173.258 428.249 173.365C428.537 173.444 428.712 173.763 428.637 174.055C428.562 174.36 428.274 174.532 427.987 174.453H427.974C427.637 174.36 427.562 174.347 427.462 174.413C427.362 174.466 427.287 174.546 427.262 174.612C427.199 174.745 427.312 174.997 427.474 175.103C427.749 175.289 428.149 175.249 428.362 175.196C428.65 175.13 428.937 175.329 428.987 175.647C429.05 175.952 428.862 176.258 428.562 176.311C428.412 176.364 428.212 176.39 427.999 176.39Z" fill="#2D3962"/>
<path d="M428.962 181.938C428.299 181.938 427.649 181.805 427.036 181.526C426.761 181.407 426.636 181.075 426.749 180.783C426.861 180.491 427.174 180.359 427.449 180.478C428.887 181.128 430.725 180.743 431.838 179.562C432.051 179.337 432.388 179.337 432.588 179.562C432.801 179.788 432.801 180.146 432.588 180.359C431.638 181.394 430.3 181.938 428.962 181.938Z" fill="#2D3962"/>
<path d="M444.092 208.945C437.815 208.945 432.201 207.565 431.851 207.472C431.538 207.392 431.35 207.061 431.425 206.729C431.5 206.397 431.813 206.198 432.126 206.278C432.263 206.317 445.555 209.582 453.945 206.079C454.245 205.959 454.583 206.105 454.695 206.424C454.808 206.742 454.67 207.1 454.37 207.22C451.244 208.52 447.556 208.945 444.092 208.945Z" fill="#2D3962"/>
<path d="M26.1333 417.399C26.2084 416.709 26.2459 415.993 26.2459 415.276C26.2334 409.941 24.2827 404.924 22.4447 399.788C18.5434 388.879 18.3559 376.842 24.6078 366.649C27.1086 362.562 28.8842 358.673 30.0221 354.214C32.1102 345.959 24.1952 318.036 42.201 317.811C63.9579 317.532 52.3417 347.432 55.7928 356.085C57.8059 361.129 59.4065 365.667 61.9198 370.565C66.2962 379.072 65.6585 388.68 62.8826 397.585C60.7694 404.354 57.6059 411.003 58.5562 417.93C59.9566 428.149 65.9961 434.612 63.3702 445.442C61.057 454.997 53.9922 463.518 41.2757 463.531C28.4841 463.531 21.2443 456.099 19.7563 446.742C17.4681 432.476 24.9955 427.632 26.1333 417.399Z" fill="#76ADA0"/>
<path d="M39.1875 475.913H39.175C38.8624 475.9 38.6123 475.621 38.6248 475.289L42.2385 347.685C42.251 347.353 42.5136 347.114 42.8262 347.101C43.1388 347.114 43.3889 347.393 43.3764 347.724L39.7627 475.329C39.7502 475.661 39.5001 475.913 39.1875 475.913Z" fill="#212C49"/>
<g opacity="0.1">
<path d="M58.5561 417.944C59.9566 428.163 65.996 434.626 63.3702 445.455C61.0569 455.011 53.9922 463.531 41.2756 463.544C28.484 463.544 21.2442 456.112 19.7562 446.756C19.7562 446.756 38.2121 443.053 45.802 437.161" fill="#212C49"/>
</g>
<path d="M48.8656 422.642C49.1031 422.018 49.2907 421.394 49.4533 420.744C50.6411 415.887 49.8659 410.95 49.2157 405.92C47.8527 395.236 50.3785 384.261 58.7687 376.232C62.1323 373.007 64.7331 369.835 66.8338 365.999C70.7351 358.912 69.2721 331.971 86.8902 335.329C108.185 339.39 90.1412 364.261 91.5542 372.808C92.3795 377.784 92.9296 382.23 94.2801 387.18C96.6433 395.78 93.8549 404.38 89.1534 411.932C85.5773 417.665 81.0008 423.08 80.3631 429.569C79.4378 439.138 83.8767 446.212 78.8877 455.528C74.4862 463.757 65.6709 470.1 53.267 467.579C40.7755 465.044 35.3863 456.855 36.0365 448.056C37.0368 434.626 45.477 431.706 48.8656 422.642Z" fill="#3B7A69"/>
<g opacity="0.1">
<path d="M80.3881 429.556C79.4629 439.125 83.9018 446.198 78.9127 455.515C74.5113 463.743 65.696 470.087 53.292 467.565C40.8005 465.03 35.4113 456.842 36.0615 448.043C36.0615 448.043 51.3539 449.556 60.1192 445.521C68.872 441.5 80.3881 429.556 80.3881 429.556Z" fill="#212C49"/>
</g>
<path d="M50.6411 476.882C50.5911 476.882 50.5411 476.869 50.4785 476.855C50.1784 476.762 50.0034 476.431 50.0909 476.112L79.9254 368.016C80.013 367.698 80.3256 367.512 80.6257 367.605C80.9258 367.698 81.1008 368.03 81.0133 368.348L51.1788 476.444C51.1163 476.709 50.8912 476.882 50.6411 476.882Z" fill="#212C49"/>
<path d="M75.224 478.581L68.7719 520.916C68.3718 523.558 66.2211 525.495 63.7078 525.495H28.6341C26.1208 525.495 23.9701 523.557 23.57 520.93L17.1179 478.727C16.6178 475.422 19.006 472.423 22.1695 472.409L70.1599 472.263C73.3109 472.25 75.7366 475.263 75.224 478.581Z" fill="#EDB15B"/>
<g opacity="0.4">
<path d="M72.0229 499.629L68.7719 520.917C68.3718 523.558 66.2211 525.495 63.7078 525.495H28.6341C26.1208 525.495 23.9701 523.557 23.5699 520.93C23.5699 520.93 45.2144 517.678 52.4417 513.962C59.669 510.246 72.0229 499.629 72.0229 499.629Z" fill="#D19A52"/>
</g>
<path d="M74.4238 482.098H17.7557C17.4431 482.098 17.193 481.832 17.193 481.5C17.193 481.169 17.4431 480.903 17.7557 480.903H74.4363C74.7489 480.903 74.999 481.169 74.999 481.5C74.999 481.832 74.7364 482.098 74.4238 482.098Z" fill="#212C49"/>
<path d="M23.57 520.797C23.2574 520.797 23.0073 520.532 23.0073 520.2C23.0073 519.868 23.2574 519.603 23.57 519.589L68.7719 519.231C69.0845 519.231 69.3346 519.496 69.3346 519.828C69.3346 520.16 69.0845 520.425 68.7719 520.439L23.57 520.797Z" fill="#212C49"/>
<path d="M501.723 362.296C498.147 349.052 498.072 335.063 496.146 321.434C492.995 299.164 489.044 278.408 492.545 256.205C493.995 247.008 498.784 236.948 507.425 235.262C512.901 234.201 518.453 236.895 522.842 240.505C535.546 250.949 536.884 266.875 540.835 283.398C543.699 295.355 546.087 307.485 547.037 319.788C548.375 336.961 553.714 385.442 534.258 388.945C511.351 393.06 505.286 375.555 501.723 362.296Z" fill="#429383"/>
<g opacity="0.33">
<path d="M547.05 319.788C548.388 336.961 553.727 385.442 534.271 388.945C511.363 393.06 505.299 375.555 501.723 362.31C501.723 362.31 519.466 356.364 525.905 348.667C532.345 340.969 547.05 319.788 547.05 319.788Z" fill="#367569"/>
</g>
<path d="M532.87 474.599C532.608 474.599 532.395 474.373 532.383 474.095C531.082 380.253 515.54 277.93 515.377 276.908C515.34 276.629 515.515 276.364 515.777 276.324C516.052 276.271 516.29 276.47 516.327 276.749C516.49 277.771 532.045 380.16 533.345 474.082C533.358 474.36 533.145 474.586 532.87 474.599Z" fill="#1B253A"/>
<path d="M565.268 365.88C566.343 348.229 568.144 331.706 564.03 314.572C562.33 307.472 557.953 299.934 551.076 299.231C546.725 298.779 542.548 301.274 539.335 304.42C530.044 313.484 529.982 326.039 527.919 339.257C526.418 348.813 525.305 358.474 525.33 368.176C525.355 381.713 523.467 415.223 542.061 418.594C566.543 422.987 564.605 376.669 565.268 365.88Z" fill="#56B2A1"/>
<g opacity="0.16">
<path d="M565.618 360.518C565.506 362.296 565.381 364.075 565.268 365.88C564.605 376.683 566.543 423 542.061 418.581C531.32 416.643 527.406 404.632 526.018 392.223C526.018 392.223 539.422 392.967 547.762 386.265C556.09 379.549 565.618 360.518 565.618 360.518Z" fill="#367569"/>
</g>
<path d="M539.972 474.679C539.96 474.679 539.96 474.679 539.947 474.679C539.685 474.666 539.472 474.413 539.497 474.135C539.547 473.179 544.761 377.904 549.913 329.251C549.938 328.972 550.188 328.786 550.451 328.799C550.713 328.826 550.913 329.091 550.876 329.37C545.724 377.997 540.51 473.245 540.46 474.201C540.448 474.466 540.235 474.679 539.972 474.679Z" fill="#1B253A"/>
<path d="M560.116 478.58L553.664 520.916C553.264 523.557 551.113 525.495 548.6 525.495H513.514C511.001 525.495 508.85 523.557 508.45 520.929L501.998 478.726C501.498 475.422 503.886 472.422 507.049 472.409L555.04 472.263C558.216 472.25 560.629 475.263 560.116 478.58Z" fill="#EDB15B"/>
<g opacity="0.4">
<path d="M556.915 499.629L553.677 520.916C553.277 523.557 551.126 525.495 548.613 525.495H513.527C511.013 525.495 508.863 523.557 508.462 520.93C508.462 520.93 530.107 517.678 537.334 513.962C544.561 510.246 556.915 499.629 556.915 499.629Z" fill="#D19A52"/>
</g>
<path d="M559.316 482.098H502.636C502.323 482.098 502.073 481.832 502.073 481.5C502.073 481.169 502.323 480.903 502.636 480.903H559.316C559.629 480.903 559.879 481.169 559.879 481.5C559.879 481.832 559.629 482.098 559.316 482.098Z" fill="#212C49"/>
<path d="M508.462 520.797C508.15 520.797 507.9 520.532 507.9 520.2C507.9 519.868 508.15 519.603 508.462 519.589L553.664 519.231C553.977 519.231 554.227 519.496 554.227 519.828C554.227 520.16 553.977 520.425 553.664 520.439L508.462 520.797Z" fill="#212C49"/>
</g>
<defs>
<clipPath id="clip0_265_3148">
<rect width="587" height="543" fill="white"/>
</clipPath>
</defs>
</svg>
