<svg width="812" height="610" viewBox="0 0 812 610" fill="none" xmlns="http://www.w3.org/2000/svg">
<path d="M389.609 234.102C390.476 231.642 390.956 228.997 390.956 226.242C390.956 213.536 380.883 203.179 368.319 202.754C365.46 191.102 354.981 182.466 342.492 182.466C341.791 182.466 341.108 182.503 340.426 182.558C338.138 180.672 335.426 179.285 332.475 178.545C331.017 171.202 325.852 165.192 319.007 162.547C319.302 160.513 319.45 158.441 319.45 156.333C319.45 132.105 299.858 112.464 275.691 112.464C252.28 112.464 233.168 130.885 231.987 154.058C216.066 155.945 203.724 169.501 203.724 185.943C203.724 186.664 203.761 187.367 203.798 188.069C195.109 189.179 188.394 196.614 188.394 205.621C188.394 212.482 192.286 218.419 197.968 221.359C197.728 222.524 197.599 223.727 197.599 224.947C197.599 228.202 198.485 231.235 200.016 233.861H199.647C192.932 233.861 187.434 239.373 187.434 246.105C187.434 252.837 192.932 258.348 199.647 258.348H387.284C393.999 258.348 399.497 252.837 399.497 246.105C399.497 240.187 395.217 235.193 389.609 234.102Z" fill="#DFF1FD"/>
<path d="M474.231 199.462C473.567 197.594 473.198 195.578 473.198 193.47C473.198 183.779 480.873 175.9 490.447 175.567C492.624 166.69 500.612 160.106 510.131 160.106C510.666 160.106 511.183 160.124 511.7 160.18C513.452 158.737 515.5 157.683 517.769 157.11C518.894 151.506 522.824 146.938 528.026 144.922C527.805 143.368 527.694 141.796 527.694 140.187C527.694 121.73 542.619 106.75 561.049 106.75C578.888 106.75 593.462 120.787 594.348 138.449C606.468 139.873 615.877 150.211 615.877 162.751C615.877 163.305 615.858 163.842 615.822 164.378C622.444 165.229 627.555 170.888 627.555 177.75C627.555 182.983 624.584 187.496 620.249 189.734C620.434 190.622 620.526 191.528 620.526 192.471C620.526 194.949 619.843 197.261 618.681 199.258H618.958C624.086 199.258 628.274 203.457 628.274 208.598C628.274 213.74 624.086 217.938 618.958 217.938H475.965C470.837 217.938 466.649 213.74 466.649 208.598C466.704 204.086 469.951 200.294 474.231 199.462Z" fill="#DFF1FD"/>
<path d="M378.632 66.2654C378.153 64.9338 377.894 63.4912 377.894 61.9747C377.894 55.0578 383.373 49.417 390.236 49.1766C391.786 42.833 397.505 38.1169 404.312 38.1169C404.7 38.1169 405.069 38.1354 405.438 38.1724C406.692 37.1552 408.168 36.3969 409.773 35.9901C410.566 31.9953 413.389 28.7218 417.115 27.2792C416.949 26.1696 416.875 25.0414 416.875 23.8947C416.875 10.6898 427.557 0 440.711 0C453.458 0 463.882 10.0425 464.527 22.6556C473.198 23.6728 479.932 31.0706 479.932 40.0403C479.932 40.4287 479.913 40.8171 479.895 41.2055C484.636 41.8158 488.289 45.8661 488.289 50.7671C488.289 54.503 486.167 57.7395 483.068 59.3485C483.197 59.9773 483.271 60.6431 483.271 61.3089C483.271 63.0844 482.791 64.7304 481.961 66.1729H482.164C485.817 66.1729 488.824 69.169 488.824 72.8494C488.824 76.5113 485.835 79.5259 482.164 79.5259H379.924C376.271 79.5259 373.264 76.5298 373.264 72.8494C373.245 69.5759 375.588 66.8572 378.632 66.2654Z" fill="#DFF1FD"/>
<path d="M529.871 355.037C529.207 353.169 528.838 351.153 528.838 349.045C528.838 339.353 536.512 331.475 546.087 331.142C548.264 322.265 556.252 315.681 565.771 315.681C566.306 315.681 566.823 315.699 567.339 315.755C569.092 314.312 571.14 313.258 573.409 312.685C574.534 307.081 578.464 302.513 583.666 300.497C583.445 298.943 583.334 297.371 583.334 295.762C583.334 277.305 598.259 262.324 616.689 262.324C634.528 262.324 649.102 276.362 649.988 294.024C662.108 295.448 671.517 305.786 671.517 318.325C671.517 318.88 671.498 319.416 671.461 319.953C678.084 320.804 683.195 326.463 683.195 333.324C683.195 338.558 680.224 343.071 675.889 345.309C676.074 346.196 676.166 347.103 676.166 348.046C676.166 350.524 675.483 352.836 674.321 354.833H674.598C679.726 354.833 683.914 359.031 683.914 364.173C683.914 369.314 679.726 373.513 674.598 373.513H531.605C526.477 373.513 522.289 369.314 522.289 364.173C522.326 359.679 525.591 355.887 529.871 355.037Z" fill="#DFF1FD"/>
<path d="M58.2966 419.138C57.6324 417.27 57.2635 415.254 57.2635 413.146C57.2635 403.455 64.9379 395.576 74.5126 395.244C76.6895 386.366 84.6776 379.782 94.1969 379.782C94.7319 379.782 95.2484 379.801 95.765 379.856C97.5176 378.414 99.5653 377.359 101.834 376.786C102.96 371.182 106.889 366.614 112.092 364.598C111.87 363.045 111.76 361.473 111.76 359.864C111.76 341.406 126.684 326.426 145.114 326.426C162.954 326.426 177.528 340.463 178.413 358.125C190.534 359.549 199.942 369.888 199.942 382.427C199.942 382.982 199.924 383.518 199.887 384.054C206.51 384.905 211.62 390.564 211.62 397.426C211.62 402.66 208.65 407.172 204.315 409.41C204.499 410.298 204.591 411.204 204.591 412.147C204.591 414.626 203.909 416.937 202.746 418.935H203.023C208.152 418.935 212.34 423.133 212.34 428.275C212.34 433.416 208.152 437.614 203.023 437.614H60.0676C54.939 437.614 50.7512 433.416 50.7512 428.275C50.7512 423.78 54.0166 419.971 58.2966 419.138Z" fill="#DFF1FD"/>
<path d="M405.991 610C630.213 610 811.982 580.68 811.982 544.511C811.982 508.343 630.213 479.023 405.991 479.023C181.768 479.023 0 508.343 0 544.511C0 580.68 181.768 610 405.991 610Z" fill="#C6E6FD"/>
<path d="M672.827 225.354C672.827 225.354 660.558 180.69 662.828 161.012C665.097 141.334 675.871 147.604 677.918 162.288C679.966 176.973 692.05 169.261 683.139 147.881C674.229 126.501 695.481 111.872 699.558 124.818C703.635 137.765 685.796 183.205 692.474 185.628C699.152 188.051 699.724 164.655 706.919 165.525C714.114 166.394 714.999 189.253 701.514 205.583C688.028 221.914 687.973 233.917 682.438 236.488C676.885 239.058 672.827 225.354 672.827 225.354Z" fill="url(#paint0_linear_265_2832)"/>
<path d="M678.896 221.063C678.896 221.063 676.904 202.329 680.04 194.487C683.195 186.664 687.327 171.147 687.327 171.147" stroke="#4089C1" stroke-width="1.8488" stroke-miterlimit="10" stroke-linecap="round"/>
<path d="M679.32 196.466C679.32 196.466 672.863 184.555 673.731 179.395" stroke="#4089C1" stroke-width="1.8488" stroke-miterlimit="10" stroke-linecap="round"/>
<path d="M678.121 203.586C678.379 204.437 701.993 191.861 703.69 184.481" stroke="#4089C1" stroke-width="1.8488" stroke-miterlimit="10" stroke-linecap="round"/>
<path d="M651.888 284.407C651.888 284.407 655.873 250.636 675.133 228.313C694.393 206.009 706.587 203.031 706.587 203.031C706.587 203.031 717.951 231.106 694.559 261.381C671.185 291.638 640.081 315.958 651.888 284.407Z" fill="url(#paint1_linear_265_2832)"/>
<path d="M650.08 298.37C650.08 298.37 688.821 243.553 700.794 211.095" stroke="#B2C0CA" stroke-width="0.9244" stroke-miterlimit="10" stroke-linecap="round"/>
<path d="M653.751 293.062C653.751 293.062 667.938 287.218 670.152 284.961" stroke="#B2C0CA" stroke-width="0.9244" stroke-miterlimit="10" stroke-linecap="round"/>
<path d="M661.739 254.353C659.064 260.327 664.008 277.73 664.008 277.73C664.008 277.73 679.118 277.453 681.147 275.104" stroke="#B2C0CA" stroke-width="0.9244" stroke-miterlimit="10" stroke-linecap="round"/>
<path d="M673.859 262.25C673.859 262.25 684.32 261.566 689.836 259.735" stroke="#B2C0CA" stroke-width="0.9244" stroke-miterlimit="10" stroke-linecap="round"/>
<path d="M681.848 248.102C681.848 248.102 698.027 249.008 701.901 245.051" stroke="#B2C0CA" stroke-width="0.9244" stroke-miterlimit="10" stroke-linecap="round"/>
<path d="M677.844 255.186C677.844 255.186 672.144 237.153 675.335 232.345" stroke="#B2C0CA" stroke-width="0.9244" stroke-miterlimit="10" stroke-linecap="round"/>
<path d="M689.467 235.396C689.467 235.396 702.565 235.193 705.72 231.624" stroke="#B2C0CA" stroke-width="0.9244" stroke-miterlimit="10" stroke-linecap="round"/>
<path d="M693.249 228.11C693.249 228.11 689.707 220.398 690.979 218.289" stroke="#B2C0CA" stroke-width="0.9244" stroke-miterlimit="10" stroke-linecap="round"/>
<path d="M653.271 247.455C653.271 247.455 647.146 223.486 654.378 203.29C661.61 183.094 669.118 177.86 669.118 177.86C669.118 177.86 684.172 193.914 676.202 220.601C668.233 247.288 653.493 271.941 653.271 247.455Z" fill="url(#paint2_linear_265_2832)"/>
<path d="M655.688 257.386C655.688 257.386 667.643 210.022 667.292 184.851" stroke="#B2C0CA" stroke-width="0.9244" stroke-miterlimit="10" stroke-linecap="round"/>
<path d="M656.795 252.818C656.795 252.818 664.894 245.125 665.798 243.016" stroke="#B2C0CA" stroke-width="0.9244" stroke-miterlimit="10" stroke-linecap="round"/>
<path d="M652.091 224.466C651.851 229.219 659.747 239.724 659.747 239.724C659.747 239.724 669.93 235.581 670.686 233.436" stroke="#B2C0CA" stroke-width="0.9244" stroke-miterlimit="10" stroke-linecap="round"/>
<path d="M662.366 226.649C662.366 226.649 669.285 223.449 672.55 220.749" stroke="#B2C0CA" stroke-width="0.9244" stroke-miterlimit="10" stroke-linecap="round"/>
<path d="M664.1 214.942C664.1 214.942 675.317 211.298 676.903 207.618" stroke="#B2C0CA" stroke-width="0.9244" stroke-miterlimit="10" stroke-linecap="round"/>
<path d="M663.233 220.804C663.233 220.804 654.655 210.078 655.559 205.972" stroke="#B2C0CA" stroke-width="0.9244" stroke-miterlimit="10" stroke-linecap="round"/>
<path d="M665.945 204.326C665.945 204.326 674.782 200.757 675.981 197.502" stroke="#B2C0CA" stroke-width="0.9244" stroke-miterlimit="10" stroke-linecap="round"/>
<path d="M666.61 198.371C666.61 198.371 662.2 194.062 662.514 192.305" stroke="#B2C0CA" stroke-width="0.9244" stroke-miterlimit="10" stroke-linecap="round"/>
<path d="M641.188 415.939C641.188 415.939 605.158 338.503 603.24 302.013C601.321 265.505 622.85 273.606 631.06 299.665C639.287 325.742 658.879 307.987 636.114 271.849C613.349 235.711 647.497 202.551 658.879 224.836C670.262 247.122 651.777 335.266 664.654 337.615C677.549 339.964 671.387 297.223 684.744 296.576C698.101 295.929 706.716 337.227 687.234 371.108C667.735 404.99 671.332 426.795 662.053 433.194C652.792 439.612 641.188 415.939 641.188 415.939Z" fill="url(#paint3_linear_265_2832)"/>
<path d="M650.891 406.266C650.891 406.266 641.501 372.81 644.822 357.589C648.143 342.368 650.891 312.888 650.891 312.888" stroke="#4089C1" stroke-width="1.8488" stroke-miterlimit="10" stroke-linecap="round"/>
<path d="M644.121 361.399C644.121 361.399 628.698 341.739 628.698 332.085" stroke="#4089C1" stroke-width="1.8488" stroke-miterlimit="10" stroke-linecap="round"/>
<path d="M644.121 374.715C644.84 376.194 683.914 346.03 684.762 332.067" stroke="#4089C1" stroke-width="1.8488" stroke-miterlimit="10" stroke-linecap="round"/>
<path d="M662.366 487.382C662.366 487.382 642.128 439.075 651.039 394.522C659.949 349.969 674.062 336.69 674.062 336.69C674.062 336.69 710.553 365.671 702.122 424.039C693.673 482.407 670.391 538.649 662.366 487.382Z" fill="url(#paint4_linear_265_2832)"/>
<path d="M670.502 507.486C670.502 507.486 680.944 404.528 672.402 351.911" stroke="#B2C0CA" stroke-width="1.8488" stroke-miterlimit="10" stroke-linecap="round"/>
<path d="M671.406 497.554C671.406 497.554 685.98 478.93 687.253 474.214" stroke="#B2C0CA" stroke-width="1.8488" stroke-miterlimit="10" stroke-linecap="round"/>
<path d="M652.792 439.611C653.733 449.654 673.546 469.203 673.546 469.203C673.546 469.203 693.581 457.348 694.54 452.65" stroke="#B2C0CA" stroke-width="1.8488" stroke-miterlimit="10" stroke-linecap="round"/>
<path d="M675.022 440.961C675.022 440.961 688.526 432.103 694.54 425.445" stroke="#B2C0CA" stroke-width="1.8488" stroke-miterlimit="10" stroke-linecap="round"/>
<path d="M675.022 415.939C675.022 415.939 697.399 404.842 699.595 396.612" stroke="#B2C0CA" stroke-width="1.8488" stroke-miterlimit="10" stroke-linecap="round"/>
<path d="M675.022 428.478C675.022 428.478 653.751 408.652 654.378 399.775" stroke="#B2C0CA" stroke-width="1.8488" stroke-miterlimit="10" stroke-linecap="round"/>
<path d="M675.594 393.117C675.594 393.117 692.99 382.871 694.522 375.676" stroke="#B2C0CA" stroke-width="1.8488" stroke-miterlimit="10" stroke-linecap="round"/>
<path d="M675.151 380.448C675.151 380.448 664.561 372.791 664.691 369.018" stroke="#B2C0CA" stroke-width="1.8488" stroke-miterlimit="10" stroke-linecap="round"/>
<path d="M694.356 473.789C694.356 473.789 688.36 421.746 709.317 381.447C730.256 341.147 747.505 332.344 747.505 332.344C747.505 332.344 774.476 370.368 750.162 424.076C725.81 477.765 687.807 525.277 694.356 473.789Z" fill="url(#paint5_linear_265_2832)"/>
<path d="M696.569 495.354C696.569 495.354 735.218 399.405 741.657 346.474" stroke="#B2C0CA" stroke-width="1.8488" stroke-miterlimit="10" stroke-linecap="round"/>
<path d="M700.204 486.088C700.204 486.088 719.39 472.273 721.917 468.093" stroke="#B2C0CA" stroke-width="1.8488" stroke-miterlimit="10" stroke-linecap="round"/>
<path d="M698.451 425.241C696.569 435.154 710.147 459.456 710.147 459.456C710.147 459.456 732.691 453.667 734.905 449.432" stroke="#B2C0CA" stroke-width="1.8488" stroke-miterlimit="10" stroke-linecap="round"/>
<path d="M719.408 432.75C719.408 432.75 734.849 428.015 742.469 423.299" stroke="#B2C0CA" stroke-width="1.8488" stroke-miterlimit="10" stroke-linecap="round"/>
<path d="M726.382 408.707C726.382 408.707 750.955 404.306 755.346 397" stroke="#B2C0CA" stroke-width="1.8488" stroke-miterlimit="10" stroke-linecap="round"/>
<path d="M722.895 420.747C722.895 420.747 707.97 395.761 711.051 387.42" stroke="#B2C0CA" stroke-width="1.8488" stroke-miterlimit="10" stroke-linecap="round"/>
<path d="M733.281 386.958C733.281 386.958 752.837 381.983 756.305 375.51" stroke="#B2C0CA" stroke-width="1.8488" stroke-miterlimit="10" stroke-linecap="round"/>
<path d="M736.381 374.659C736.381 374.659 728.337 364.358 729.5 360.751" stroke="#B2C0CA" stroke-width="1.8488" stroke-miterlimit="10" stroke-linecap="round"/>
<path d="M318.767 460.584C318.767 460.584 242.908 439.482 198.688 387.346C154.467 335.211 151.958 306.082 151.958 306.082C151.958 306.082 220.198 289.881 281.151 354.352C342.123 418.824 386.731 498.923 318.767 460.584Z" fill="url(#paint6_linear_265_2832)"/>
<path d="M350.056 469.702C350.056 469.702 238.37 361.251 168.359 322.265" stroke="#B2C0CA" stroke-width="1.8488" stroke-miterlimit="10" stroke-linecap="round"/>
<path d="M339.208 459.363C339.208 459.363 330.851 424.705 326.46 418.805" stroke="#B2C0CA" stroke-width="1.8488" stroke-miterlimit="10" stroke-linecap="round"/>
<path d="M253.498 427.35C266.227 435.598 307.754 430.383 307.754 430.383C307.754 430.383 312.477 395.576 307.828 390.065" stroke="#B2C0CA" stroke-width="1.8488" stroke-miterlimit="10" stroke-linecap="round"/>
<path d="M275.838 402.271C275.838 402.271 277.978 377.988 275.746 364.654" stroke="#B2C0CA" stroke-width="1.8488" stroke-miterlimit="10" stroke-linecap="round"/>
<path d="M246.321 378.913C246.321 378.913 254.106 342.035 246.45 331.752" stroke="#B2C0CA" stroke-width="1.8488" stroke-miterlimit="10" stroke-linecap="round"/>
<path d="M261.098 390.62C261.098 390.62 217.855 397.333 207.986 388.308" stroke="#B2C0CA" stroke-width="1.8488" stroke-miterlimit="10" stroke-linecap="round"/>
<path d="M219.94 356.923C219.94 356.923 224.109 326.74 217.044 318.233" stroke="#B2C0CA" stroke-width="1.8488" stroke-miterlimit="10" stroke-linecap="round"/>
<path d="M204.573 345.623C204.573 345.623 185.663 351.023 181.31 347.362" stroke="#B2C0CA" stroke-width="1.8488" stroke-miterlimit="10" stroke-linecap="round"/>
<path d="M167.067 369.777C167.067 369.777 120.356 356.775 93.1084 324.669C65.8788 292.563 64.3291 274.623 64.3291 274.623C64.3291 274.623 106.354 264.655 143.896 304.344C181.439 344.033 208.927 393.394 167.067 369.777Z" fill="url(#paint7_linear_265_2832)"/>
<path d="M186.346 375.399C186.346 375.399 117.571 308.616 74.4387 284.592" stroke="#B2C0CA" stroke-width="1.8488" stroke-miterlimit="10" stroke-linecap="round"/>
<path d="M179.668 369.037C179.668 369.037 174.521 347.694 171.827 344.051" stroke="#B2C0CA" stroke-width="1.8488" stroke-miterlimit="10" stroke-linecap="round"/>
<path d="M126.869 349.322C134.709 354.408 160.297 351.19 160.297 351.19C160.297 351.19 163.212 329.755 160.334 326.352" stroke="#B2C0CA" stroke-width="1.8488" stroke-miterlimit="10" stroke-linecap="round"/>
<path d="M140.631 333.879C140.631 333.879 141.96 318.936 140.576 310.724" stroke="#B2C0CA" stroke-width="1.8488" stroke-miterlimit="10" stroke-linecap="round"/>
<path d="M122.459 319.49C122.459 319.49 127.256 296.779 122.533 290.436" stroke="#B2C0CA" stroke-width="1.8488" stroke-miterlimit="10" stroke-linecap="round"/>
<path d="M131.555 326.685C131.555 326.685 104.915 330.828 98.8459 325.261" stroke="#B2C0CA" stroke-width="1.8488" stroke-miterlimit="10" stroke-linecap="round"/>
<path d="M106.206 305.934C106.206 305.934 108.771 287.347 104.417 282.095" stroke="#B2C0CA" stroke-width="1.8488" stroke-miterlimit="10" stroke-linecap="round"/>
<path d="M96.7428 298.98C96.7428 298.98 85.102 302.309 82.427 300.053" stroke="#B2C0CA" stroke-width="1.8488" stroke-miterlimit="10" stroke-linecap="round"/>
<path d="M152.29 325.39C152.29 325.39 117.515 291.527 108.974 250.248C100.432 208.968 107.664 192.508 107.664 192.508C107.664 192.508 149.302 203.956 163.267 256.85C177.232 309.744 177.73 366.226 152.29 325.39Z" fill="url(#paint8_linear_265_2832)"/>
<path d="M166.514 339.575C166.514 339.575 138.104 247.899 111.76 206.101" stroke="#B2C0CA" stroke-width="1.8488" stroke-miterlimit="10" stroke-linecap="round"/>
<path d="M163.691 330.772C163.691 330.772 169.392 309.559 168.764 305.083" stroke="#B2C0CA" stroke-width="1.8488" stroke-miterlimit="10" stroke-linecap="round"/>
<path d="M126.795 288.087C131.241 296.317 155.224 305.786 155.224 305.786C155.224 305.786 168.027 288.364 167.141 284.018" stroke="#B2C0CA" stroke-width="1.8488" stroke-miterlimit="10" stroke-linecap="round"/>
<path d="M146.258 281.152C146.258 281.152 154.578 268.668 157.29 260.789" stroke="#B2C0CA" stroke-width="1.8488" stroke-miterlimit="10" stroke-linecap="round"/>
<path d="M137.2 259.791C137.2 259.791 152.272 242.165 151.165 234.342" stroke="#B2C0CA" stroke-width="1.8488" stroke-miterlimit="10" stroke-linecap="round"/>
<path d="M141.738 270.499C141.738 270.499 116.39 261.326 113.715 253.521" stroke="#B2C0CA" stroke-width="1.8488" stroke-miterlimit="10" stroke-linecap="round"/>
<path d="M129.415 240.094C129.415 240.094 140.557 225.021 139.247 218.326" stroke="#B2C0CA" stroke-width="1.8488" stroke-miterlimit="10" stroke-linecap="round"/>
<path d="M124.452 229.441C124.452 229.441 112.645 226.76 111.372 223.486" stroke="#B2C0CA" stroke-width="1.8488" stroke-miterlimit="10" stroke-linecap="round"/>
<path d="M179.649 426.998C179.649 426.998 133.971 328.812 131.536 282.539C129.101 236.266 156.386 246.512 166.809 279.561C177.233 312.629 202.082 290.121 173.229 244.292C144.358 198.482 187.656 156.426 202.101 184.685C216.527 212.944 193.098 324.706 209.425 327.684C225.77 330.661 217.966 276.473 234.883 275.659C251.819 274.845 262.759 327.221 238.038 370.165C213.317 413.109 217.856 440.777 206.104 448.896C194.334 457.015 179.649 426.998 179.649 426.998Z" fill="url(#paint9_linear_265_2832)"/>
<path d="M191.954 414.737C191.954 414.737 180.055 372.311 184.261 353.021C188.467 333.731 191.954 296.354 191.954 296.354" stroke="#4089C1" stroke-width="1.8488" stroke-miterlimit="10" stroke-linecap="round"/>
<path d="M183.357 357.848C183.357 357.848 163.802 332.917 163.802 320.674" stroke="#4089C1" stroke-width="1.8488" stroke-miterlimit="10" stroke-linecap="round"/>
<path d="M183.357 374.733C184.261 376.601 233.813 338.355 234.902 320.674" stroke="#4089C1" stroke-width="1.8488" stroke-miterlimit="10" stroke-linecap="round"/>
<path d="M318.251 487.604C318.251 487.604 241.746 506.191 177.786 482.223C113.844 458.254 97.5176 434.045 97.5176 434.045C97.5176 434.045 149.246 386.607 233.813 413.165C318.362 439.723 396.213 487.919 318.251 487.604Z" fill="url(#paint10_linear_265_2832)"/>
<path d="M350 480.299C350 480.299 199.776 440.055 119.674 440.185" stroke="#B2C0CA" stroke-width="1.8488" stroke-miterlimit="10" stroke-linecap="round"/>
<path d="M335.518 476.563C335.518 476.563 311.388 450.357 304.691 447.342" stroke="#B2C0CA" stroke-width="1.8488" stroke-miterlimit="10" stroke-linecap="round"/>
<path d="M245.085 490.434C260.213 491.433 293.955 466.595 293.955 466.595C293.955 466.595 281.17 433.878 274.436 431.344" stroke="#B2C0CA" stroke-width="1.8488" stroke-miterlimit="10" stroke-linecap="round"/>
<path d="M252.428 457.625C252.428 457.625 242.521 435.376 234.072 424.816" stroke="#B2C0CA" stroke-width="1.8488" stroke-miterlimit="10" stroke-linecap="round"/>
<path d="M215.291 451.614C215.291 451.614 204.185 415.606 192.508 410.353" stroke="#B2C0CA" stroke-width="1.8488" stroke-miterlimit="10" stroke-linecap="round"/>
<path d="M233.887 454.629C233.887 454.629 199.37 481.594 186.364 478.524" stroke="#B2C0CA" stroke-width="1.8488" stroke-miterlimit="10" stroke-linecap="round"/>
<path d="M181.586 445.271C181.586 445.271 170.573 416.882 160.26 412.887" stroke="#B2C0CA" stroke-width="1.8488" stroke-miterlimit="10" stroke-linecap="round"/>
<path d="M162.677 442.904C162.677 442.904 148.785 456.848 143.214 455.776" stroke="#B2C0CA" stroke-width="1.8488" stroke-miterlimit="10" stroke-linecap="round"/>
<path d="M177.362 465.152C175.295 462.785 173.229 460.935 170.942 459.104C168.672 457.292 166.293 455.628 163.765 454.129C161.238 452.631 158.563 451.3 155.74 450.172C155.039 449.876 154.338 449.617 153.6 449.358L152.512 448.988C152.106 448.859 151.903 448.748 151.202 448.581C148.822 447.915 146.313 447.841 144.044 448.1C141.756 448.378 139.709 448.988 137.901 449.765C136.074 450.523 134.451 451.429 132.993 452.373C130.023 454.277 127.607 456.404 125.374 458.587C123.142 460.769 121.15 463.062 119.305 465.411C118.382 466.595 117.497 467.778 116.63 468.999L115.357 470.848C115.043 471.329 114.748 471.755 114.434 472.254C110.8 476.711 107.166 481.187 103.587 485.699C99.8973 490.304 96.2076 494.928 92.5733 499.589C88.9021 504.231 85.2862 508.91 81.6888 513.589C80.2868 515.42 78.9032 517.288 77.5195 519.119V541.035C79.9178 541.09 82.3345 540.128 84.0318 538.168C87.869 533.674 91.6693 529.143 95.4328 524.593C99.1962 520.025 102.941 515.457 106.631 510.852C110.357 506.265 114.029 501.642 117.7 496.999C121.389 492.376 125.024 487.734 128.658 483.055L129.009 482.611L129.341 482.093L130.208 480.706L131.204 479.208C131.887 478.209 132.588 477.229 133.307 476.267C134.764 474.362 136.277 472.531 137.808 470.867C139.358 469.239 140.963 467.741 142.494 466.669C144.007 465.577 145.464 464.93 146.239 464.819C146.645 464.745 146.885 464.708 147.088 464.764C147.051 464.727 147.475 464.856 147.715 464.912L148.545 465.134C149.099 465.263 149.652 465.467 150.224 465.633C152.475 466.299 154.762 467.094 157.087 467.963C159.393 468.814 161.754 469.72 164.116 470.663C166.459 471.57 168.931 472.624 171.237 473.438L171.716 473.604C173.432 474.196 175.424 473.881 176.9 472.587C179.059 470.663 179.262 467.334 177.362 465.152Z" fill="#0D2933"/>
<path d="M328.213 452.835C328.047 451.855 327.77 450.874 327.401 449.968C326.663 448.137 325.575 446.621 324.431 445.4C323.287 444.161 322.07 443.218 320.852 442.441C319.635 441.646 318.454 441.054 317.273 440.518C316.683 440.277 316.093 440.037 315.521 439.833L314.635 439.519L313.491 439.223C310.429 438.428 307.127 438.391 304.138 438.964C301.131 439.519 298.456 440.592 296.132 441.849C293.77 443.107 291.722 444.586 289.878 446.177C288.033 447.749 286.372 449.413 284.841 451.152C284.066 452.021 283.328 452.909 282.627 453.815L281.576 455.221C281.207 455.738 280.93 456.127 280.45 456.867L279.879 457.754L279.51 458.901C276.097 469.424 272.721 479.966 269.437 490.526L265.009 504.97V532.435C265.046 532.453 265.065 532.472 265.102 532.472C269.437 534.025 274.197 531.769 275.746 527.423C277.609 522.207 279.417 516.992 281.207 511.758L286.483 496.019C289.822 485.921 293.069 475.786 296.298 465.651L296.925 464.745C297.386 464.116 297.884 463.488 298.382 462.877C299.397 461.657 300.448 460.528 301.537 459.548C303.695 457.569 305.909 456.127 307.551 455.738C308.381 455.498 309.045 455.442 309.765 455.572L310.041 455.609L310.558 455.72C310.909 455.794 311.222 455.886 311.554 455.979C312.181 456.145 312.79 456.312 313.288 456.441C314.34 456.737 314.875 456.941 315.244 456.682C315.428 456.571 315.65 456.404 315.945 456.423C316.074 456.423 316.259 456.478 316.406 456.589L316.646 456.756C316.683 456.793 316.738 456.811 316.775 456.83C316.794 456.83 316.812 456.848 316.849 456.83C316.886 456.793 316.886 456.867 317.015 456.682C315.742 459.234 316.757 462.322 319.303 463.599C321.848 464.875 324.929 463.857 326.202 461.305L326.719 460.473L327.069 459.844C327.291 459.437 327.475 459.012 327.641 458.587C327.955 457.717 328.195 456.793 328.287 455.831C328.361 454.832 328.361 453.833 328.213 452.835Z" fill="#0D2933"/>
<path opacity="0.59" d="M92.8686 494.318C84.4193 494.318 77.5012 501.253 77.5012 509.724V527.201L110.302 494.318H92.8686Z" fill="#7FC8FD"/>
<path opacity="0.59" d="M137.993 494.318H122.33L77.5012 539.259V545.362C77.5012 552.002 81.7628 557.68 87.6662 559.825L148.675 498.664C145.907 496.001 142.144 494.318 137.993 494.318Z" fill="#7FC8FD"/>
<path opacity="0.59" d="M153.36 509.724C153.36 505.396 151.552 501.494 148.674 498.682L87.666 559.843C89.2895 560.435 91.042 560.787 92.8684 560.787H112.848L153.36 520.173V509.724Z" fill="#F0F8FF"/>
<path opacity="0.59" d="M112.866 560.787H137.993C146.442 560.787 153.36 553.851 153.36 545.381V520.173L112.866 560.787Z" fill="#7FC8FD"/>
<path opacity="0.59" d="M110.321 494.318L77.5012 527.219V539.278L122.33 494.318H110.321Z" fill="#F0F8FF"/>
<path opacity="0.59" d="M207.321 494.318C198.872 494.318 191.954 501.253 191.954 509.724V528.033L225.585 494.318H207.321Z" fill="#7FC8FD"/>
<path opacity="0.59" d="M225.585 494.318L191.954 528.052V537.188L234.699 494.318H225.585Z" fill="#F0F8FF"/>
<path opacity="0.59" d="M252.427 494.318H234.699L191.936 537.188V545.362C191.936 551.669 195.754 557.106 201.197 559.492L262.445 498.091C259.77 495.76 256.265 494.318 252.427 494.318Z" fill="#7FC8FD"/>
<path opacity="0.59" d="M267.795 509.724C267.795 505.081 265.71 500.92 262.445 498.091L201.197 559.492C203.078 560.306 205.126 560.768 207.303 560.768H223.132L267.777 516.012V509.724H267.795Z" fill="#F0F8FF"/>
<path opacity="0.59" d="M223.15 560.787H252.428C260.877 560.787 267.795 553.851 267.795 545.381V516.03L223.15 560.787Z" fill="#7FC8FD"/>
<path d="M137.993 560.787H92.8686C84.4193 560.787 77.5012 553.851 77.5012 545.381V509.742C77.5012 501.272 84.4193 494.336 92.8686 494.336H137.993C146.442 494.336 153.36 501.272 153.36 509.742V545.381C153.36 553.851 146.442 560.787 137.993 560.787Z" stroke="#174859" stroke-width="5.5533" stroke-miterlimit="10"/>
<path d="M252.427 560.787H207.303C198.854 560.787 191.936 553.851 191.936 545.381V509.742C191.936 501.272 198.854 494.336 207.303 494.336H252.427C260.877 494.336 267.795 501.272 267.795 509.742V545.381C267.795 553.851 260.895 560.787 252.427 560.787Z" stroke="#174859" stroke-width="5.5533" stroke-miterlimit="10"/>
<path d="M153.36 523.576C153.36 523.576 173.819 501.383 191.936 523.576" stroke="#174859" stroke-width="5.5533" stroke-miterlimit="10"/>
<path d="M542.729 465.614C547.009 468.925 553.761 472.753 562.856 473.66C567.191 474.085 571.305 471.588 572.929 467.538L576.895 457.606C555.163 459.419 543.688 444.272 543.688 444.272L539.704 454.259C538.08 458.291 539.279 462.951 542.729 465.614Z" fill="#FF5D7B"/>
<path d="M608.368 308.738L554.209 444.299L566.676 449.305L620.835 313.744L608.368 308.738Z" fill="#F4B031"/>
<path d="M620.839 313.735L566.68 449.297L578.343 453.979L632.502 318.418L620.839 313.735Z" fill="#E8A423"/>
<path d="M599.313 305.091L545.154 440.653L554.213 444.29L608.373 308.729L599.313 305.091Z" fill="#F4C43E"/>
<path d="M599.292 305.065L627.499 282.687L632.499 318.399C632.499 318.399 614.733 322.505 599.292 305.065Z" fill="#FACFC9"/>
<path d="M616.928 291.064C621.356 293.95 625.672 295.503 629.399 296.28L627.499 282.668L616.928 291.064Z" fill="#174859"/>
<path d="M541.844 448.859C541.844 448.859 553.319 463.987 575.051 462.193L581.489 446.084C559.757 447.897 548.282 432.75 548.282 432.75L541.844 448.859Z" fill="#174859"/>
<path d="M553.743 488.603C557.027 492.912 562.561 498.35 571.121 501.586C575.198 503.121 579.81 501.771 582.43 498.276L588.832 489.713C567.376 485.829 560.2 468.241 560.2 468.241L553.761 476.859C551.142 480.336 551.105 485.145 553.743 488.603Z" fill="#FF5D7B"/>
<path d="M657.624 354.048L570.355 470.976L581.108 479.042L668.378 362.114L657.624 354.048Z" fill="#F4B031"/>
<path d="M668.379 362.119L581.11 479.047L591.17 486.592L678.439 369.665L668.379 362.119Z" fill="#E8A423"/>
<path d="M649.802 348.196L562.532 465.124L570.347 470.985L657.616 354.058L649.802 348.196Z" fill="#F4C43E"/>
<path d="M649.785 348.175L682.807 333.86L678.435 369.647C678.416 369.647 660.208 369.018 649.785 348.175Z" fill="#FACFC9"/>
<path d="M670.428 339.224C673.97 343.163 677.734 345.771 681.128 347.491L682.789 333.86L670.428 339.224Z" fill="#174859"/>
<path d="M557.211 472.198C557.211 472.198 564.388 489.787 585.843 493.67L596.211 479.781C574.755 475.897 567.579 458.309 567.579 458.309L557.211 472.198Z" fill="#174859"/>
<path d="M760.825 494.04L749.608 535.856C748.575 539.721 744.572 542.015 740.734 540.979C736.879 539.943 734.591 535.93 735.624 532.083L746.841 490.267C747.874 486.402 751.877 484.109 755.715 485.144C759.552 486.162 761.858 490.175 760.825 494.04Z" fill="#AAB9D8"/>
<path d="M630.931 411.814C594.311 401.957 556.639 424.446 548.116 461.842C540.276 496.278 560.901 531.417 594.735 541.312C612.611 546.527 630.82 543.957 645.855 535.653C653.788 531.27 663.049 529.993 671.793 532.342L679.745 534.488C694.356 538.427 709.391 529.734 713.32 515.087L719.039 493.744C722.969 479.097 714.298 464.024 699.687 460.085L691.736 457.939C683.028 455.59 675.649 449.876 671 442.108C662.366 427.719 648.401 416.53 630.931 411.814Z" fill="#B4D3F7"/>
<path d="M604.384 410.131C609.235 410.187 614.161 410.853 619.068 412.166C634.491 416.327 646.851 426.222 654.489 438.946C658.603 445.807 665.115 450.856 672.808 452.927L679.837 454.814C692.751 458.291 700.407 471.607 696.938 484.553L691.884 503.417C688.415 516.363 675.133 524.038 662.219 520.561L655.19 518.675C647.46 516.585 639.269 517.732 632.259 521.597C618.976 528.939 602.871 531.214 587.061 526.591C567.893 520.987 553.522 506.21 547.508 488.289C551.88 512.775 569.682 533.951 594.735 541.275C612.611 546.491 630.82 543.92 645.855 535.616C653.788 531.233 663.049 529.957 671.793 532.305L679.745 534.451C694.356 538.39 709.391 529.698 713.321 515.05L719.04 493.708C722.969 479.06 714.298 463.987 699.687 460.048L691.736 457.902C683.028 455.554 675.649 449.839 671 442.071C662.366 427.664 648.401 416.475 630.931 411.777C622.002 409.41 612.999 408.948 604.384 410.131Z" fill="#99C5F7"/>
<path d="M706.163 517.954L627.684 496.815C627.684 496.815 637.332 497.073 635.34 489.065C633.347 481.057 613.534 487.789 624.105 490.952C634.676 494.114 646.685 479.041 635.358 471.329C624.031 463.599 617.002 481.335 633.532 477.839C650.061 474.344 636.963 462.193 636.963 462.193L715.442 483.332" stroke="#C1DEFF" stroke-width="1.4337" stroke-miterlimit="10" stroke-linejoin="round"/>
<path d="M733.89 481.205L719.907 533.396C718.615 538.205 713.634 541.09 708.819 539.795C704.023 538.501 701.145 533.507 702.436 528.68L716.42 476.489C717.711 471.681 722.692 468.795 727.507 470.09C732.304 471.403 735.182 476.397 733.89 481.205Z" fill="#E0EFF2"/>
<path d="M740.956 483.129L726.972 535.32C725.681 540.128 720.7 543.013 715.885 541.719C711.088 540.424 708.21 535.431 709.502 530.604L723.486 478.412C724.777 473.604 729.758 470.719 734.573 472.013C739.388 473.308 742.247 478.301 740.956 483.129Z" fill="#E0EFF2"/>
<path d="M748.04 485.034L734.056 537.225C732.765 542.033 727.784 544.918 722.969 543.624C718.172 542.329 715.294 537.336 716.586 532.509L730.57 480.317C731.861 475.509 736.842 472.624 741.657 473.918C746.453 475.213 749.331 480.206 748.04 485.034Z" fill="#E0EFF2"/>
<path d="M755.124 486.938L741.141 539.13C739.849 543.938 734.868 546.823 730.053 545.529C725.257 544.234 722.379 539.241 723.67 534.413L737.654 482.222C738.945 477.414 743.926 474.529 748.741 475.823C753.538 477.118 756.416 482.13 755.124 486.938Z" fill="#E0EFF2"/>
<path d="M727.194 477.21L712.103 533.507C710.72 538.704 705.333 541.811 700.149 540.406C694.965 539.019 691.865 533.618 693.267 528.421L708.358 472.124C709.742 466.927 715.129 463.82 720.313 465.226C725.478 466.613 728.577 472.013 727.194 477.21Z" fill="#AAB9D8"/>
<path d="M598.904 445.714C597.244 451.892 590.861 455.572 584.699 453.926L578.925 452.372C572.763 450.708 569.092 444.309 570.734 438.132C572.394 431.955 578.777 428.274 584.939 429.92L590.713 431.474C596.875 433.138 600.546 439.537 598.904 445.714Z" fill="#C1DEFF"/>
<path d="M621.504 448.895C620.249 453.575 615.397 456.367 610.73 455.11C606.062 453.852 603.277 448.988 604.531 444.309C605.786 439.63 610.638 436.837 615.305 438.095C619.954 439.352 622.758 444.216 621.504 448.895Z" fill="#C1DEFF"/>
<path d="M756.84 485.57L749.59 512.572C748.557 516.437 744.553 518.73 740.716 517.695C740.624 517.676 740.55 517.621 740.458 517.602C738.558 521.338 734.241 523.372 730.053 522.244C728.799 521.911 727.673 521.301 726.714 520.524C725.496 520.728 724.223 520.672 722.969 520.339C721.714 520.006 720.589 519.396 719.63 518.619C718.412 518.823 717.139 518.767 715.885 518.434C714.63 518.101 713.505 517.491 712.546 516.714C711.328 516.918 710.055 516.862 708.801 516.529C708.395 516.419 707.989 516.271 707.602 516.104C705.425 517.399 702.75 517.843 700.13 517.14C697.049 516.308 694.725 514.07 693.618 511.296C691.773 511.776 689.854 512.072 687.917 512.146C685.224 512.257 682.475 511.961 679.726 511.222L671.775 509.076C670.687 508.78 669.58 508.54 668.473 508.355C661.831 507.264 655.042 508.189 648.862 510.889C647.829 511.333 646.814 511.832 645.837 512.387C641.132 514.976 636.133 517.01 630.912 518.434C628.827 519.008 626.706 519.47 624.566 519.821C620.286 520.543 615.895 520.857 611.449 520.709C609.235 520.635 607.003 520.45 604.771 520.154C601.413 519.711 598.056 519.008 594.698 518.028C593.296 517.621 591.949 517.158 590.584 516.659C590.234 516.529 589.902 516.4 589.57 516.271C588.297 515.79 587.042 515.272 585.825 514.717C585.751 514.68 585.695 514.662 585.622 514.625C584.33 514.033 583.076 513.385 581.84 512.72C581.545 512.553 581.249 512.387 580.954 512.239C579.81 511.592 578.667 510.926 577.578 510.223C577.504 510.167 577.412 510.13 577.32 510.075C576.139 509.298 574.977 508.484 573.852 507.652C573.612 507.486 573.39 507.301 573.151 507.116C572.099 506.321 571.066 505.488 570.07 504.638C569.996 504.582 569.922 504.527 569.867 504.471C568.778 503.528 567.745 502.548 566.712 501.549C566.546 501.383 566.399 501.216 566.232 501.068C565.273 500.106 564.332 499.108 563.428 498.072C563.391 498.035 563.355 497.98 563.318 497.943C562.358 496.833 561.418 495.705 560.532 494.54C560.44 494.429 560.348 494.299 560.255 494.188C559.388 493.042 558.558 491.876 557.765 490.693C557.746 490.674 557.746 490.656 557.728 490.637C556.898 489.38 556.104 488.104 555.366 486.791C555.33 486.735 555.293 486.68 555.274 486.606C551.492 479.911 548.836 472.568 547.471 464.93C544.648 480.761 547.747 496.593 555.274 509.872C555.311 509.927 555.348 509.982 555.366 510.056C556.104 511.37 556.898 512.646 557.728 513.903C557.746 513.922 557.746 513.94 557.765 513.959C558.558 515.161 559.388 516.326 560.255 517.454C560.348 517.565 560.44 517.695 560.532 517.806C561.418 518.971 562.358 520.099 563.318 521.209C563.355 521.246 563.391 521.301 563.428 521.338C564.332 522.355 565.273 523.354 566.232 524.334C566.399 524.501 566.546 524.667 566.712 524.815C567.727 525.814 568.778 526.794 569.867 527.737C569.941 527.793 570.014 527.848 570.07 527.904C571.066 528.754 572.099 529.587 573.151 530.382C573.39 530.567 573.612 530.733 573.852 530.918C574.977 531.75 576.139 532.564 577.32 533.341C577.394 533.396 577.486 533.452 577.578 533.489C578.685 534.192 579.81 534.857 580.954 535.505C581.249 535.671 581.545 535.838 581.84 535.986C583.076 536.651 584.33 537.299 585.622 537.891C585.695 537.928 585.751 537.946 585.825 537.983C587.042 538.538 588.297 539.056 589.57 539.536C589.902 539.666 590.252 539.795 590.584 539.925C591.931 540.424 593.296 540.887 594.698 541.293C598.056 542.274 601.413 542.976 604.771 543.42C607.003 543.716 609.235 543.901 611.449 543.975C615.877 544.105 620.267 543.809 624.566 543.087C626.706 542.718 628.827 542.255 630.912 541.7C636.133 540.295 641.132 538.26 645.837 535.653C646.833 535.098 647.848 534.598 648.862 534.155C655.042 531.454 661.831 530.53 668.473 531.621C669.58 531.806 670.687 532.046 671.775 532.342L679.726 534.488C682.475 535.227 685.224 535.523 687.917 535.412C689.854 535.338 691.773 535.042 693.618 534.562C694.725 537.336 697.049 539.573 700.13 540.406C702.75 541.109 705.425 540.665 707.602 539.37C707.989 539.536 708.376 539.684 708.801 539.795C710.055 540.128 711.328 540.184 712.546 539.98C713.505 540.757 714.63 541.367 715.885 541.7C717.139 542.033 718.412 542.089 719.63 541.885C720.589 542.662 721.714 543.272 722.969 543.605C724.223 543.938 725.496 543.994 726.714 543.79C727.673 544.567 728.799 545.177 730.053 545.51C734.241 546.638 738.558 544.585 740.458 540.868C740.55 540.905 740.624 540.942 740.716 540.961C744.572 541.996 748.557 539.684 749.59 535.838L760.806 494.022C761.747 490.582 759.976 487.031 756.84 485.57Z" fill="#E0EFF2"/>
<path d="M336.828 467.649C336.828 467.649 341.606 461.25 359.132 459.659C376.658 458.069 508.932 459.659 508.932 459.659C508.932 459.659 516.902 461.25 521.68 467.649C526.458 474.048 571.084 531.547 571.084 531.547C571.084 531.547 577.467 539.536 571.084 544.326C564.701 549.117 308.141 544.326 308.141 544.326C308.141 544.326 293.807 545.917 300.172 534.746C306.536 523.576 336.828 467.649 336.828 467.649Z" fill="#164454"/>
<path d="M559.941 501.198H308.141V534.747H559.941V501.198Z" fill="white"/>
<path d="M336.828 430.901C336.828 430.901 341.606 424.501 359.132 422.911C376.658 421.32 508.932 422.911 508.932 422.911C508.932 422.911 516.902 424.501 521.68 430.901C526.458 437.3 571.084 494.799 571.084 494.799C571.084 494.799 577.467 502.788 571.084 507.578C564.701 512.368 308.141 507.578 308.141 507.578C308.141 507.578 293.807 509.169 300.172 497.998C306.536 486.828 336.828 430.901 336.828 430.901Z" fill="#164454"/>
<path d="M559.941 512.387H308.141V513.977H559.941V512.387Z" fill="#DFECF0"/>
<path d="M559.941 517.177H308.141V518.767H559.941V517.177Z" fill="#DFECF0"/>
<path d="M559.941 521.967H308.141V523.557H559.941V521.967Z" fill="#DFECF0"/>
<path d="M559.941 526.757H308.141V528.347H559.941V526.757Z" fill="#DFECF0"/>
<path d="M559.941 531.565H308.141V533.156H559.941V531.565Z" fill="#DFECF0"/>
<path d="M337.788 423.447C337.788 423.447 342.234 417.511 358.524 416.031C374.813 414.551 497.716 416.031 497.716 416.031C497.716 416.031 505.113 417.511 509.56 423.447C514.006 429.384 555.459 482.814 555.459 482.814C555.459 482.814 561.381 490.23 555.459 494.688C549.537 499.145 311.149 494.688 311.149 494.688C311.149 494.688 297.829 496.167 303.751 485.773C309.654 475.398 337.788 423.447 337.788 423.447Z" fill="#66A1ED"/>
<path d="M545.072 454.629H311.13V485.792H545.072V454.629Z" fill="white"/>
<path d="M337.788 389.307C337.788 389.307 342.234 383.37 358.524 381.89C374.813 380.411 497.716 381.89 497.716 381.89C497.716 381.89 505.113 383.37 509.56 389.307C514.006 395.243 555.459 448.674 555.459 448.674C555.459 448.674 561.381 456.09 555.459 460.547C549.537 465.004 311.149 460.547 311.149 460.547C311.149 460.547 297.829 462.027 303.751 451.633C309.654 441.257 337.788 389.307 337.788 389.307Z" fill="#8CBDF7"/>
<path d="M545.072 465.023H311.13V466.502H545.072V465.023Z" fill="#DFECF0"/>
<path d="M545.072 469.461H311.13V470.941H545.072V469.461Z" fill="#DFECF0"/>
<path d="M545.072 473.919H311.13V475.398H545.072V473.919Z" fill="#DFECF0"/>
<path d="M545.072 478.376H311.13V479.855H545.072V478.376Z" fill="#DFECF0"/>
<path d="M545.072 482.833H311.13V484.312H545.072V482.833Z" fill="#DFECF0"/>
<path d="M507.143 570.034C508.84 563.505 509.928 553.87 506.515 542.958C504.892 537.761 500.022 534.247 494.598 534.358L481.297 534.635C493.971 558.752 482.237 579.318 482.237 579.318L495.631 579.04C501.036 578.948 505.777 575.286 507.143 570.034Z" fill="#FF5D7B"/>
<path d="M476.784 550.48L295.234 554.357L295.591 571.147L477.141 567.269L476.784 550.48Z" fill="#F4B031"/>
<path d="M476.464 534.777L294.914 538.654L295.248 554.372L476.798 550.494L476.464 534.777Z" fill="#E8A423"/>
<path d="M477.147 567.273L295.597 571.15L295.856 583.335L477.406 579.458L477.147 567.273Z" fill="#F4C43E"/>
<path d="M295.836 583.331L256.468 561.822L294.895 538.649C294.895 538.63 308.252 557.051 295.836 583.331Z" fill="#FACFC9"/>
<path d="M271.208 569.867C272.351 563.357 272.019 557.642 271.097 552.982L256.468 561.804L271.208 569.867Z" fill="#174859"/>
<path d="M488.418 579.225C488.418 579.225 500.151 558.66 487.477 534.543L465.911 535.005C478.585 559.122 466.852 579.688 466.852 579.688L488.418 579.225Z" fill="#174859"/>
<path d="M428.147 440.961C473.711 440.961 510.648 429.319 510.648 414.958C510.648 400.597 473.711 388.955 428.147 388.955C382.584 388.955 345.647 400.597 345.647 414.958C345.647 429.319 382.584 440.961 428.147 440.961Z" fill="#0F2F3B"/>
<path d="M428.147 391.84C473.711 391.84 510.648 382.012 510.648 369.887C510.648 357.763 473.711 347.935 428.147 347.935C382.584 347.935 345.647 357.763 345.647 369.887C345.647 382.012 382.584 391.84 428.147 391.84Z" fill="#DFECF0"/>
<path d="M510.648 369.887H345.647V414.958H510.648V369.887Z" fill="#0F2F3B"/>
<path d="M434.715 327.443C434.715 327.443 274.104 368.426 275.562 368.426C277.019 368.426 421.58 418.195 428.885 419.656C436.191 421.117 573.446 377.211 579.275 374.271C585.123 371.348 440.563 325.963 434.715 327.443Z" fill="#143E4D"/>
<path d="M579.275 374.271V369.887L275.561 364.025V368.426L579.275 374.271Z" fill="#143E4D"/>
<path d="M434.715 323.041C434.715 323.041 274.104 364.025 275.562 364.025C277.019 364.025 421.58 413.793 428.885 415.254C436.191 416.715 573.446 372.809 579.275 369.869C585.123 366.965 440.563 321.58 434.715 323.041Z" fill="#174859"/>
<path d="M427.501 364.672V371.108L280.229 369.887C280.229 369.887 276.097 370.516 274.547 376.342C272.997 382.168 275.58 409.41 275.58 409.41C275.58 409.41 271.023 415.106 268.348 407.209C265.673 399.312 268.348 369.887 268.348 369.887C268.348 369.887 270.046 363.951 277.738 364.672C285.413 365.412 427.501 364.672 427.501 364.672Z" fill="#0F2F3B"/>
<path d="M268.164 411.389C268.164 411.389 261.541 416.623 264.806 424.279C268.072 431.936 268.072 431.936 268.072 431.936L268.182 429.606L272.13 433.582L273.422 429.606L275.156 434.821C275.156 434.821 286.833 422.023 274.547 410.353C274.528 410.335 270.654 408.504 268.164 411.389Z" fill="#0F2F3B"/>
<path d="M441.928 367.539C441.928 369.481 437.168 371.053 431.283 371.053C425.417 371.053 420.639 369.481 420.639 367.539C420.639 365.597 425.398 364.025 431.283 364.025C437.168 364.025 441.928 365.597 441.928 367.539Z" fill="#F4C43E"/>
<path d="M275.672 410.335C275.672 412.702 273.772 414.607 271.411 414.607C269.049 414.607 267.149 412.702 267.149 410.335C267.149 407.967 269.049 406.063 271.411 406.063C273.754 406.063 275.672 407.986 275.672 410.335Z" fill="#F4C43E"/>
<path d="M411.212 179.839C411.212 179.839 411.673 183.631 406.913 188.476C402.135 193.322 400.346 211.983 423.019 205.158C445.691 198.315 427.963 173.81 411.212 179.839Z" fill="#CF2949"/>
<path d="M411.968 205.657C411.968 205.657 421.875 201.681 430.527 203.309C430.527 203.309 434.254 215.053 428.553 219.066C422.853 223.061 409.459 217.919 411.968 205.657Z" fill="#66A1ED"/>
<path d="M345.923 93.8589L329.597 97.8537C328.084 98.2236 326.553 97.2804 326.184 95.7824C325.815 94.2658 326.756 92.7308 328.25 92.3609L344.577 88.3661C346.089 87.9962 347.621 88.9394 347.99 90.4375C348.359 91.954 347.418 93.4891 345.923 93.8589Z" fill="#AAB9D8"/>
<path d="M349.594 34.0296C346.108 19.6595 331.386 10.9671 317.052 15.0544C303.861 18.8088 295.744 32.4576 298.714 45.8845C300.282 52.9864 304.562 58.7381 310.207 62.326C313.178 64.2125 315.354 67.1531 316.185 70.5745L316.941 73.7001C318.343 79.4333 324.099 82.9658 329.836 81.5602L338.175 79.5258C343.894 78.1202 347.418 72.35 346.015 66.5982L345.259 63.4727C344.429 60.0512 345.001 56.4633 346.772 53.4118C350.074 47.771 351.273 40.8911 349.594 34.0296Z" fill="#FFD96E"/>
<path d="M345.204 24.616C346.089 26.2805 346.79 28.0929 347.252 30.0163C348.728 36.0825 347.658 42.1487 344.761 47.1421C343.193 49.8238 342.695 53.0049 343.433 56.0379L344.097 58.7936C345.333 63.8611 342.234 68.984 337.16 70.2046L329.781 71.9986C324.726 73.2377 319.616 70.1307 318.38 65.0447L317.716 62.289C316.978 59.256 315.059 56.6667 312.421 54.9838C307.44 51.8027 303.64 46.7168 302.256 40.4472C300.578 32.846 302.921 25.1523 307.902 19.7335C300.375 25.8181 296.501 35.8606 298.696 45.8105C300.264 52.9124 304.544 58.6641 310.189 62.252C313.159 64.1385 315.336 67.0791 316.166 70.5005L316.923 73.6261C318.325 79.3594 324.081 82.8918 329.818 81.4862L338.157 79.4518C343.876 78.0463 347.399 72.276 345.997 66.5243L345.241 63.3987C344.411 59.9772 344.983 56.3893 346.754 53.3378C350.037 47.697 351.237 40.8171 349.576 33.9556C348.746 30.5157 347.233 27.3531 345.204 24.616Z" fill="#F4C43E"/>
<path d="M327.531 79.6368L320.041 48.8252C320.041 48.8252 321.756 52.1726 324.118 49.9903C326.479 47.808 320.465 42.2966 321.369 46.4949C322.273 50.6931 329.652 52.0062 330.169 46.6798C330.685 41.3534 323.324 42.2781 327.604 47.2716C331.884 52.2651 333.582 45.5147 333.582 45.5147L341.072 76.3263" stroke="#FFF8E6" stroke-width="0.5581" stroke-miterlimit="10" stroke-linejoin="round"/>
<path d="M345.241 82.2445L324.855 87.2194C322.974 87.6818 321.055 86.5167 320.594 84.6302C320.133 82.7438 321.295 80.8204 323.177 80.358L343.562 75.383C345.444 74.9207 347.362 76.0858 347.824 77.9723C348.285 79.8772 347.123 81.7821 345.241 82.2445Z" fill="#E0EFF2"/>
<path d="M345.923 85.0186L325.538 89.9936C323.656 90.4559 321.738 89.2908 321.277 87.4043C320.815 85.5179 321.978 83.5945 323.859 83.1321L344.245 78.1572C346.126 77.6948 348.045 78.8599 348.506 80.7464C348.967 82.6513 347.805 84.5747 345.923 85.0186Z" fill="#E0EFF2"/>
<path d="M346.588 87.8112L326.202 92.7862C324.32 93.2486 322.402 92.0834 321.941 90.197C321.479 88.3106 322.642 86.3872 324.523 85.9248L344.909 80.9498C346.79 80.4874 348.709 81.6526 349.17 83.539C349.631 85.4254 348.469 87.3489 346.588 87.8112Z" fill="#E0EFF2"/>
<path d="M347.27 90.5854L326.885 95.5604C325.003 96.0227 323.084 94.8576 322.623 92.9712C322.162 91.0847 323.324 89.1613 325.206 88.699L345.591 83.724C347.473 83.2616 349.392 84.4267 349.853 86.3132C350.314 88.2181 349.152 90.123 347.27 90.5854Z" fill="#E0EFF2"/>
<path d="M345.352 79.2114L323.361 84.5747C321.332 85.0741 319.266 83.8165 318.768 81.7821C318.27 79.7477 319.524 77.6763 321.553 77.177L343.544 71.8136C345.573 71.3143 347.639 72.5719 348.137 74.6063C348.635 76.6406 347.381 78.712 345.352 79.2114Z" fill="#AAB9D8"/>
<path d="M332.069 29.406C329.652 29.9978 327.198 28.4998 326.608 26.077L326.055 23.8022C325.464 21.3794 326.959 18.9197 329.375 18.3463C331.792 17.7545 334.246 19.2526 334.836 21.6753L335.389 23.9501C335.961 26.3544 334.467 28.8142 332.069 29.406Z" fill="#FFE69E"/>
<path d="M335.205 37.7285C333.379 38.1723 331.515 37.0442 331.073 35.2132C330.63 33.3823 331.755 31.5144 333.582 31.0705C335.408 30.6266 337.271 31.7548 337.714 33.5857C338.175 35.4352 337.031 37.2846 335.205 37.7285Z" fill="#FFE69E"/>
<path d="M348.063 90.9184L337.511 93.4891C335.998 93.859 334.467 92.9158 334.098 91.4177C334.098 91.3807 334.098 91.3437 334.08 91.3067C332.456 91.3622 330.943 90.2526 330.556 88.6066C330.427 88.1072 330.427 87.6079 330.519 87.1455C330.224 86.7571 330.003 86.3317 329.892 85.8324C329.763 85.3331 329.763 84.8337 329.855 84.3714C329.56 83.983 329.338 83.5576 329.228 83.0582C329.099 82.5589 329.099 82.0596 329.191 81.5972C328.896 81.2088 328.674 80.7834 328.564 80.2841C328.527 80.1176 328.508 79.9512 328.49 79.8032C327.641 79.3039 326.995 78.4716 326.737 77.436C326.442 76.2338 326.774 75.0132 327.512 74.107C326.995 73.5706 326.553 72.9603 326.147 72.313C325.612 71.4068 325.188 70.4081 324.929 69.3354L324.173 66.2099C324.062 65.7845 323.952 65.3591 323.804 64.9522C322.937 62.474 321.35 60.3287 319.266 58.7196C318.915 58.4422 318.565 58.2018 318.196 57.9614C316.425 56.8332 314.801 55.5016 313.344 53.9851C312.753 53.3748 312.2 52.746 311.683 52.0802C310.632 50.7486 309.709 49.306 308.935 47.7525C308.547 46.9757 308.197 46.1804 307.865 45.3667C307.385 44.1276 306.998 42.8515 306.702 41.5199C306.573 40.965 306.481 40.4102 306.407 39.8554C306.389 39.7074 306.37 39.578 306.352 39.43C306.278 38.9122 306.223 38.3758 306.186 37.858C306.186 37.821 306.186 37.8025 306.186 37.7655C306.149 37.2107 306.131 36.6558 306.131 36.1195C306.131 35.99 306.131 35.8606 306.131 35.7311C306.131 35.2133 306.149 34.7139 306.186 34.1961C306.186 34.1591 306.186 34.1221 306.186 34.0851C306.223 33.5303 306.278 32.9939 306.352 32.4391C306.37 32.3282 306.389 32.2172 306.407 32.1062C306.481 31.5884 306.573 31.089 306.684 30.5897C306.684 30.5527 306.702 30.5157 306.702 30.4787C306.813 29.9239 306.961 29.3875 307.108 28.8512C307.127 28.7587 307.164 28.6848 307.182 28.5923C307.33 28.0744 307.496 27.5751 307.68 27.0757C307.68 27.0573 307.699 27.0388 307.699 27.0203C307.902 26.4839 308.104 25.9476 308.344 25.4297C308.363 25.3743 308.4 25.3188 308.418 25.2633C308.639 24.7455 308.879 24.2461 309.138 23.7653C309.138 23.7653 309.138 23.7468 309.156 23.7468C309.433 23.2289 309.728 22.7111 310.023 22.2117C310.042 22.1932 310.06 22.1747 310.06 22.1377C311.628 19.5855 313.639 17.3107 315.982 15.4058C310.06 17.4032 305.245 21.4165 302.127 26.4839C302.109 26.5024 302.09 26.5209 302.09 26.5579C301.777 27.0573 301.5 27.5751 301.223 28.0929C301.223 28.0929 301.223 28.1114 301.205 28.1114C300.947 28.6108 300.707 29.1101 300.485 29.628C300.467 29.6835 300.43 29.7389 300.412 29.7944C300.19 30.3123 299.969 30.8486 299.766 31.3849C299.766 31.4034 299.747 31.4219 299.747 31.4404C299.563 31.9398 299.397 32.4391 299.249 32.957C299.231 33.0494 299.194 33.1234 299.176 33.2159C299.028 33.7522 298.88 34.2886 298.77 34.8434C298.77 34.8804 298.751 34.9174 298.751 34.9544C298.641 35.4537 298.567 35.9715 298.474 36.4709C298.456 36.5819 298.438 36.6928 298.419 36.8038C298.345 37.3401 298.29 37.895 298.253 38.4498C298.253 38.4868 298.253 38.5238 298.253 38.5608C298.216 39.0786 298.198 39.578 298.198 40.0958C298.198 40.2253 298.198 40.3547 298.198 40.4842C298.198 41.039 298.216 41.5938 298.253 42.1302C298.253 42.1672 298.253 42.1857 298.253 42.2226C298.29 42.7405 298.345 43.2768 298.419 43.7947C298.438 43.9426 298.456 44.0721 298.474 44.22C298.567 44.7749 298.659 45.3297 298.77 45.8845C299.065 47.2161 299.452 48.4922 299.932 49.7314C300.246 50.5451 300.596 51.3404 301.002 52.1171C301.777 53.6522 302.718 55.1132 303.769 56.4448C304.286 57.1106 304.839 57.7394 305.429 58.3498C306.887 59.8663 308.51 61.1979 310.281 62.326C310.65 62.5665 311.019 62.8069 311.351 63.0843C313.418 64.6933 315.004 66.8387 315.89 69.3169C316.037 69.7238 316.166 70.1492 316.259 70.5745L317.015 73.7001C317.273 74.7728 317.698 75.7715 318.233 76.6777C318.62 77.325 319.081 77.9168 319.598 78.4716C318.86 79.3594 318.528 80.58 318.823 81.8006C319.081 82.8363 319.727 83.6686 320.576 84.1679C320.594 84.3344 320.612 84.5008 320.649 84.6488C320.778 85.1481 321 85.592 321.277 85.9619C321.184 86.4427 321.203 86.9236 321.313 87.4229C321.443 87.9223 321.664 88.3661 321.941 88.736C321.848 89.2169 321.867 89.6977 321.978 90.1971C322.107 90.6964 322.328 91.1403 322.605 91.5102C322.513 91.991 322.531 92.4719 322.642 92.9712C323.048 94.6172 324.542 95.7084 326.165 95.6714C326.165 95.7084 326.165 95.7454 326.184 95.7824C326.553 97.2989 328.084 98.2236 329.597 97.8538L345.923 93.859C347.27 93.5261 348.156 92.2684 348.063 90.9184Z" fill="#E0EFF2"/>
<path d="M419.919 330.365C419.919 330.365 413.37 339.76 414.994 341.388C416.617 343.015 423.628 337.596 425.62 334.933C427.612 332.27 425.343 328.534 425.343 328.534L419.919 330.365Z" fill="#FF5D7B"/>
<path d="M416.101 280.486C416.101 280.486 417.89 304.122 418.665 307.007C419.44 309.892 419.181 329.403 420.196 331.715C421.229 334.027 425.841 330.439 425.841 328.886C425.841 327.351 428.664 314.294 428.922 311.057C429.18 307.821 432.759 289.326 433.018 284.185C433.257 279.062 421.986 271.904 416.101 280.486Z" fill="#FACFC9"/>
<path d="M468.383 309.781C468.383 309.781 473.272 320.138 475.504 319.527C477.736 318.917 476.5 310.132 475.19 307.062C473.88 304.011 469.508 304.122 469.508 304.122L468.383 309.781Z" fill="#FF5D7B"/>
<path d="M450.433 270.462C450.341 278.951 450.377 284.425 453.126 292.248C454.418 295.929 468.9 302.919 471.704 306.248C474.508 309.577 471.335 311.057 467.221 310.225C463.107 309.392 450.341 303.123 445.747 299.868C442.076 297.26 435.231 286.774 435.342 277.804C435.434 268.816 444.013 265.709 450.433 270.462Z" fill="#FACFC9"/>
<path d="M412.208 206.619C412.208 206.619 394.996 202.976 392.745 200.109C390.494 197.261 380.33 183.927 377.046 184.167C373.78 184.407 372.821 186.22 372.858 188.384C372.895 190.548 386.547 207.156 387.912 208.561C389.277 209.967 407.448 221.433 409.957 220.638C412.466 219.843 415.935 207.47 412.208 206.619Z" fill="#174859"/>
<path d="M459.749 247.14C459.749 247.14 457.96 253.096 460.007 254.15C462.074 255.222 463.107 254.039 463.107 254.039C463.107 254.039 466.501 257.016 467.737 254.372C468.973 251.727 467.497 245.864 462.756 244.903C462.775 244.903 460.266 244.903 459.749 247.14Z" fill="#FACFC9"/>
<path d="M430.896 218.363C430.896 218.363 446.946 225.594 448.533 228.849C450.119 232.123 457.24 247.307 460.505 247.769C463.752 248.232 465.062 246.659 465.486 244.533C465.911 242.406 456.078 223.283 455.045 221.618C454.012 219.954 438.681 204.881 436.062 205.14C433.442 205.399 427.428 216.754 430.896 218.363Z" fill="#174859"/>
<path d="M406.895 209.874C406.895 209.874 408.002 232.345 411.654 236.71C411.654 236.71 413.093 239.946 413.13 248.38C413.167 256.813 408.74 270.998 413.647 285.35C413.647 285.35 455.856 288.605 456.022 273.587C456.133 263.933 449.695 251.32 443.939 244.311C439.013 238.3 441.541 236.136 439.917 228.757C439.917 228.72 439.899 228.683 439.899 228.646C439.069 224.744 438.349 208.21 437.058 206.083C435.748 203.956 430.509 203.327 430.509 203.327C430.509 203.327 426.634 215.645 422.742 215.441C418.849 215.256 411.95 205.676 411.95 205.676C411.95 205.676 407.854 206.508 406.895 209.874Z" fill="#174859"/>
<path d="M376.326 184.574C376.326 184.574 378.651 177.786 376.326 176.473C374.002 175.16 372.747 176.473 372.747 176.473C372.747 176.473 368.965 172.885 367.434 175.882C365.903 178.878 367.342 185.702 372.747 187.015C372.747 187.015 375.644 187.145 376.326 184.574Z" fill="#FACFC9"/>
<path d="M419.237 205.288V201.663C419.237 201.663 411.563 201.367 411.101 195.8C410.659 190.233 411.101 192.989 411.101 192.989C411.101 192.989 408.389 192.027 408.389 191.084C408.389 190.141 411.747 187.274 411.747 187.274C411.747 187.274 413.5 176.085 422.207 175.641C430.915 175.197 434.531 182.558 434.217 188.587C433.922 194.616 429.568 200.183 427.76 200.479C425.952 200.775 427.151 205.306 427.151 205.306C427.151 205.306 421.801 209.338 419.237 205.288Z" fill="#FACFC9"/>
<path d="M420.731 171.091C420.731 171.091 407.577 173.403 410.714 179.081C413.85 184.759 423.019 185.166 423.019 185.166C423.019 185.166 423.295 190.418 426.542 191.898C426.542 191.898 429.475 199.665 423.019 207.858C416.562 216.051 436.135 219.417 439.77 200.719C443.404 182.022 436.689 175.456 430.822 174.125C424.956 172.774 423.701 174.125 423.701 174.125C423.701 174.125 422.465 170.703 420.731 171.091Z" fill="#FF5D7B"/>
<path d="M334.652 96.6147C334.652 96.6147 340.02 164.877 371.622 179.599C403.224 194.32 408.887 216.44 389.923 226.686" stroke="#174859" stroke-width="0.816" stroke-miterlimit="10"/>
<path d="M316.831 316.494C315.558 317.734 314.783 319.398 314.506 321.174C313.658 326.796 311.204 342.424 309.857 342.664C308.215 342.96 289.048 351.486 289.048 351.985C289.048 352.485 289.509 357.071 296.648 355.555C303.788 354.038 316.812 348.823 317.772 347.547C318.749 346.27 322.789 326.685 322.088 322.616C321.517 319.139 320.262 313.165 316.831 316.494Z" fill="#CC3853"/>
<path d="M285.358 388.641C285.358 388.641 284.122 395.262 282.83 396.242C281.539 397.222 278.163 396.057 278.034 393.579C277.905 391.101 280.506 383.574 280.506 383.574C280.506 383.574 284.269 383.555 285.358 388.641Z" fill="#FACFC9"/>
<path d="M322.033 352.743C322.033 352.743 287.959 350.968 285.007 355.462C282.074 359.956 282.406 364.709 295.56 364.302C308.695 363.896 323.048 366.115 324.782 361.399C326.516 356.664 322.033 352.743 322.033 352.743Z" fill="#5384C2"/>
<path d="M287.424 355.129C287.424 355.129 285.155 354.334 283.66 359.346C282.148 364.376 276.687 388.382 277.167 388.9C277.646 389.418 283.55 392.377 287.424 391.841C287.424 391.841 292.516 369.481 293.383 365.671C294.25 361.861 292.553 354.463 287.424 355.129Z" fill="#5384C2"/>
<path d="M284.399 394.134C284.399 394.134 284.749 398.073 281.355 401.513C277.96 404.953 261.929 394.855 261.283 389.677C260.637 384.498 277.554 390.49 277.554 390.49C277.554 390.49 279.731 394.171 284.399 394.134Z" fill="#FF5D7B"/>
<path d="M272.85 392.395C267.002 387.568 262.445 387.994 262.095 388.068C261.504 388.401 261.191 388.918 261.301 389.714C261.91 394.522 275.746 403.547 280.451 402.068C282.904 400.052 278.716 397.241 272.85 392.395Z" fill="#E03D5B"/>
<path d="M328.988 310.835C335.611 309.004 342.308 313.646 343.009 320.508C344.263 333.01 345.056 354.112 337.216 361.103C325.833 371.256 311.831 368.02 311.831 368.02C311.831 368.02 317.07 324.78 316.812 318.14C316.738 316.199 320.963 313.054 328.988 310.835Z" fill="#FF5D7B"/>
<path d="M301.02 395.558C301.02 395.558 299.784 402.179 298.493 403.159C297.201 404.139 293.825 402.974 293.696 400.496C293.567 398.018 296.168 390.49 296.168 390.49C296.168 390.49 299.932 390.49 301.02 395.558Z" fill="#FACFC9"/>
<path d="M337.603 359.42C337.603 359.42 338.673 372.366 324.985 371.848C311.296 371.33 299.526 372.089 299.526 369.37C299.526 366.651 296.777 360.178 311.296 358.384C325.815 356.59 337.603 359.42 337.603 359.42Z" fill="#66A1ED"/>
<path d="M303.087 360.604C303.087 360.604 300.817 359.808 299.323 364.82C297.81 369.851 292.35 393.856 292.829 394.374C293.309 394.892 299.212 397.833 303.087 397.315C303.087 397.315 308.178 374.955 309.045 371.145C309.912 367.354 308.215 359.938 303.087 360.604Z" fill="#66A1ED"/>
<path d="M300.282 401.291C300.282 401.291 300.633 405.23 297.238 408.67C293.844 412.11 277.812 402.012 277.167 396.834C276.521 391.656 293.438 397.648 293.438 397.648C293.438 397.648 295.615 401.347 300.282 401.291Z" fill="#FF5D7B"/>
<path d="M288.734 399.553C282.886 394.726 278.329 395.151 277.979 395.225C277.388 395.558 277.075 396.076 277.185 396.871C277.794 401.679 291.63 410.705 296.335 409.225C298.788 407.209 294.6 404.398 288.734 399.553Z" fill="#E03D5B"/>
<path d="M324.099 315.07L322.42 310.928C322.42 310.928 313.51 314.164 310.429 308.005C307.33 301.865 307.219 297.963 307.219 297.963C307.219 297.963 304.027 284.388 313.768 279.82C323.509 275.252 331.036 282.002 333.471 289.012C335.924 296.021 333.526 304.418 331.608 305.583C329.689 306.766 333.157 311.39 333.157 311.39C333.157 311.39 328.896 318.492 324.099 315.07Z" fill="#FACFC9"/>
<path d="M322.55 287.366C322.55 287.366 311.388 294.116 304.784 291.693C298.179 289.271 298.825 282.15 301.869 280.245C304.913 278.34 305.928 280.245 305.928 280.245C305.928 280.245 309.525 277.564 310.503 279.395C310.503 279.395 320.649 275.529 322.55 276.436C324.45 277.342 324.45 277.323 324.45 277.323C324.45 277.323 322.033 275.159 323.177 274.9C324.321 274.642 325.833 276.436 325.833 276.436C325.833 276.436 330.15 276.177 329.763 277.064C329.375 277.952 327.789 278.322 327.789 278.322C327.789 278.322 333.766 281.133 334.486 290.306C335.205 299.461 334.486 301.237 334.486 301.237C334.486 301.237 334.246 309.929 331.054 307.173C327.863 304.418 331.276 300.349 331.276 299.461C331.276 298.573 332.548 294.505 330.888 292.97C329.246 291.434 327.77 294.246 327.77 294.246C327.77 294.246 329.228 298.314 328.601 298.703C327.973 299.091 326.055 298.444 325.815 297.168C325.557 295.892 325.427 293.228 325.188 292.711C324.929 292.193 322.642 291.176 322.402 290.547C322.162 289.899 322.55 287.366 322.55 287.366Z" fill="#174859"/>
<path d="M311.849 362.287L332.216 355.85L309.783 350.08L283.642 355.203L311.849 362.287Z" fill="#AAB9D8"/>
<path d="M336.515 315.995C336.515 315.995 333.213 339.187 331.571 339.464C329.929 339.76 310.761 348.286 310.761 348.786C310.761 349.285 311.222 353.872 318.362 352.355C325.483 350.82 338.526 345.605 339.485 344.347C340.463 343.071 344.503 323.485 343.802 319.417C343.101 315.348 336.847 313.683 336.515 315.995Z" fill="#E03D5B"/>
<path d="M311.831 349.045C311.831 349.045 305.43 348.767 304.36 351.134C303.271 353.502 304.858 355.943 308.105 355.851C311.351 355.758 315.595 352.873 315.207 351.856C314.82 350.839 312.92 349.304 311.831 349.045Z" fill="#FACFC9"/>
<path d="M279.012 330.606L309.876 337.375L311.85 362.286L283.642 355.203L279.012 330.606Z" fill="#E0EFF2"/>
<path d="M74.568 454.703L70.6754 458.106C70.6754 458.106 64.9564 458.254 62.9456 458.827C60.9347 459.4 57.2266 461.546 57.7985 462.267C57.7985 462.267 55.0866 465.134 55.7876 465.707C55.7876 465.707 56.212 467.723 57.2266 467.723C57.2266 467.723 58.0937 469.165 59.9385 468.869C59.9385 468.869 62.8533 466.724 65.1225 466.724C67.3731 466.724 68.6645 466.872 68.6645 466.872C68.6645 466.872 65.3807 467.519 64.3661 468.925C63.3699 470.312 63.3699 471.181 63.9418 471.477C64.5137 471.755 66.9488 469.757 68.9412 469.757C70.9521 469.757 74.5864 467.316 74.5495 465.17C74.5126 463.025 78.9402 459.863 80.084 458.143C81.2647 456.386 76.6526 452.872 74.568 454.703Z" fill="#FACFC9"/>
<path d="M145.464 441.202C145.464 441.202 149.8 456.071 152.272 456.756C154.744 457.44 162.197 437.799 162.197 437.799C162.197 437.799 163.839 435.265 169.89 437.799C175.941 440.333 157.216 471.107 154.467 471.163C151.718 471.218 136.849 464.005 137.974 458.513C139.118 453.02 141.664 441.239 145.464 441.202Z" fill="#E8A423"/>
<path d="M121.759 561.656C121.759 561.656 120.91 567.407 122.349 569.497C123.788 571.587 125.799 570.496 126.445 568.369C127.09 566.224 127.035 560.195 127.035 560.195C127.035 560.195 123.345 559.085 121.759 561.656Z" fill="#FACFC9"/>
<path d="M127.717 566.779C128.603 566.427 129.562 566.353 130.448 566.686C133.307 567.74 138.713 569.682 140.76 570.089C143.62 570.662 148.416 572.826 148.638 575.582C148.859 578.319 130.392 577.062 127.588 576.951C124.784 576.84 120.449 577.302 120.209 575.471C120.061 574.232 120.117 570.311 120.154 567.87C120.172 566.871 121.113 566.15 122.091 566.409C123.825 566.853 126.315 567.333 127.717 566.779Z" fill="#5384C2"/>
<path d="M85.1759 560.195C85.1759 560.195 82.8329 565.521 83.6631 567.925C84.4933 570.33 86.7255 569.812 87.9247 567.925C89.1238 566.039 90.655 560.195 90.655 560.195C90.655 560.195 87.4081 558.142 85.1759 560.195Z" fill="#FACFC9"/>
<path d="M88.2567 566.205C89.1422 565.854 90.1015 565.78 90.987 566.113C93.8465 567.167 99.2518 569.109 101.3 569.516C104.159 570.089 108.956 572.272 109.177 575.009C109.398 577.746 90.9317 576.488 88.1275 576.377C85.3234 576.266 80.988 576.729 80.7482 574.898C80.6006 573.659 80.656 569.738 80.6929 567.297C80.7113 566.298 81.6522 565.577 82.6299 565.835C84.3825 566.279 86.873 566.742 88.2567 566.205Z" fill="#5384C2"/>
<path d="M96.6135 474.899C96.6135 474.899 98.2554 485.422 102.591 489.417C102.591 489.417 127.68 517.084 128.972 522.429C130.263 527.774 120.836 562.747 120.744 563.117C120.652 563.487 127.662 563.875 128.4 560.565C129.119 557.254 140.576 521.246 139.782 518.601C138.989 515.956 118.235 484.719 118.235 484.719C118.235 484.719 119.25 474.566 117.276 471.644C115.265 468.721 96.6135 474.899 96.6135 474.899Z" fill="#E03D5B"/>
<path d="M118.143 472.661C118.143 472.661 96.7796 473.844 96.6135 477.099L101.023 531.621L83.6628 561.434C83.6628 561.434 86.3747 564.689 90.4887 563.117C94.6396 557.735 111.833 536.3 113.328 532.083C114.822 527.885 111.225 490.767 111.225 490.767C111.225 490.767 118.235 486.513 118.364 482.925C118.493 479.356 118.143 472.661 118.143 472.661Z" fill="#FF5D7B"/>
<path d="M134.728 430.974C134.728 430.974 119.231 426.443 116.999 429.92C114.785 433.397 99.1042 473.105 101.429 477.21C103.753 481.298 115.745 488.307 118.715 486.106C121.685 483.905 144.358 448.877 145.612 445.64C146.867 442.385 143.897 436.56 141.056 434.84C138.233 433.101 134.728 430.974 134.728 430.974Z" fill="#ABB5F3"/>
<path d="M122.626 458.808C122.626 458.808 114.269 481.427 109.841 485.57C109.841 485.57 100.894 486.55 95.4146 476.101C95.4146 476.101 105.137 453.408 106.317 450.116C107.498 446.824 115.173 429.809 115.173 429.809C115.173 429.809 116.648 424.131 134.728 430.974L122.626 458.808Z" fill="#F4B031"/>
<path d="M124.747 463.968C124.747 463.968 118.493 485.052 118.715 486.088C118.936 487.142 120.043 489.139 122.238 490.785C124.452 492.431 137.993 458.512 137.993 458.512C137.993 458.512 146.959 447.268 146.332 444.716C145.723 442.163 146.037 437.836 146.037 437.836C146.037 437.836 141.554 436.985 137.919 443.421C134.304 449.857 124.747 463.968 124.747 463.968Z" fill="#F4B031"/>
<path d="M141.849 437.521L143.601 433.212C143.601 433.212 152.844 436.56 156.054 430.179C159.264 423.799 159.374 419.748 159.374 419.748C159.374 419.748 162.677 405.656 152.586 400.903C142.476 396.168 134.672 403.159 132.126 410.446C129.581 417.732 132.071 426.425 134.063 427.645C136.056 428.866 132.458 433.656 132.458 433.656C132.458 433.656 136.886 441.072 141.849 437.521Z" fill="#FACFC9"/>
<path d="M143.472 408.763C143.472 408.763 155.058 415.754 161.902 413.257C168.746 410.742 168.082 403.362 164.927 401.383C161.773 399.404 160.721 401.383 160.721 401.383C160.721 401.383 156.976 398.591 155.98 400.496C155.98 400.496 145.446 396.482 143.472 397.407C141.498 398.332 141.498 398.332 141.498 398.332C141.498 398.332 144.007 396.094 142.808 395.817C141.627 395.558 140.041 397.407 140.041 397.407C140.041 397.407 135.558 397.148 135.964 398.073C136.351 398.998 138.011 399.367 138.011 399.367C138.011 399.367 131.794 402.29 131.056 411.796C130.3 421.302 131.056 423.151 131.056 423.151C131.056 423.151 131.296 432.158 134.617 429.31C137.938 426.462 134.377 422.227 134.377 421.302C134.377 420.377 133.067 416.16 134.764 414.57C136.48 412.979 137.993 415.883 137.993 415.883C137.993 415.883 136.48 420.1 137.126 420.507C137.79 420.895 139.764 420.229 140.022 418.916C140.281 417.603 140.41 414.829 140.686 414.292C140.945 413.756 143.324 412.702 143.583 412.055C143.859 411.407 143.472 408.763 143.472 408.763Z" fill="#174859"/>
<path d="M135.779 429.217C135.779 429.217 128.455 428.792 128.16 429.421C127.865 430.031 130.042 433.896 130.042 433.896C130.042 433.896 121.463 445.973 121.925 452.132C122.386 458.291 121.851 461.712 121.851 461.712C121.851 461.712 136.388 431.455 135.779 429.217Z" fill="#E8A423"/>
<path d="M142.808 433.601C142.808 433.601 147.439 439.297 147.125 439.889C146.793 440.499 142.421 440.998 142.421 440.998C142.421 440.998 137.698 455.054 132.459 458.291C127.201 461.527 124.766 463.987 124.766 463.987C124.766 463.987 140.65 434.433 142.808 433.601Z" fill="#E8A423"/>
<path d="M116.962 428.663C116.962 428.663 92.8685 433.823 90.5994 435.543C88.3302 437.281 71.0073 454.018 71.0073 454.018C71.0073 454.018 73.0735 461.934 79.0508 460.565C85.028 459.197 91.5956 445.973 93.9754 445.973C96.3552 445.973 116.15 440.185 119.047 439.149C121.943 438.095 121.021 427.775 116.962 428.663Z" fill="#F4C43E"/>
<path d="M164.614 440.795L165.61 437.17C165.61 437.17 163.175 434.71 163.175 433.785C163.175 432.861 164.393 428.126 165.61 428.126C166.828 428.126 172.491 424.908 173.561 427.368C174.631 429.809 173.561 429.809 173.561 429.809C173.561 429.809 175.425 432.102 174.041 433.785C174.041 433.785 173.875 436.245 173.414 437.17C172.953 438.076 170.204 438.687 170.204 438.687L169.245 441.868C169.226 441.868 165.444 444.771 164.614 440.795Z" fill="#FACFC9"/>
<path d="M168.857 429.883C168.212 429.883 167.677 429.347 167.677 428.7V419.157C167.677 418.509 168.212 417.973 168.857 417.973C169.503 417.973 170.038 418.509 170.038 419.157V428.7C170.038 429.347 169.503 429.883 168.857 429.883Z" fill="#174859"/>
<path d="M168.857 424.834C172.362 424.834 175.203 421.986 175.203 418.472C175.203 414.959 172.362 412.11 168.857 412.11C165.352 412.11 162.511 414.959 162.511 418.472C162.511 421.986 165.352 424.834 168.857 424.834Z" fill="#174859"/>
<path d="M168.857 422.966C171.333 422.966 173.34 420.954 173.34 418.472C173.34 415.99 171.333 413.978 168.857 413.978C166.381 413.978 164.374 415.99 164.374 418.472C164.374 420.954 166.381 422.966 168.857 422.966Z" fill="#C6E6FD"/>
<path d="M592.023 443.366C592.023 443.366 596.211 459.955 600.436 462.637C604.66 465.337 619.216 455.664 619.216 455.664C619.216 455.664 619.917 450.615 621.264 449.931C622.61 449.265 624.787 451.281 624.787 451.281C624.787 451.281 632.351 445.548 634.362 445.382C636.373 445.215 630.414 450.948 630.414 450.948C630.414 450.948 630.672 456.423 628.643 457.902C626.632 459.382 621.596 460.214 621.596 460.214C621.596 460.214 609.143 473.105 600.251 472.587C591.378 472.087 579.589 450.264 579.589 450.264C579.589 450.264 585.64 440.998 592.023 443.366Z" fill="#E0A880"/>
<path d="M613.294 538.427L615.932 544.234L623.201 542.403L617.242 534.118C617.261 534.118 610.656 532.62 613.294 538.427Z" fill="#F8C29C"/>
<path d="M575.826 477.858C575.826 477.858 597.576 483.313 605.324 494.872C613.073 506.431 622.463 535.375 622.463 535.375L611.431 541.349L592.245 506.376L566.934 492.246C566.952 492.246 568.262 475.416 575.826 477.858Z" fill="#E8A423"/>
<path d="M618.146 454L616.559 461.305L632.185 451.485L633.439 444.309L618.146 454Z" fill="white"/>
<path d="M576.932 439.112C576.932 439.112 583.518 429.994 588.998 434.377C594.477 438.742 596.322 446.269 596.322 446.269L582.965 455.997C582.965 455.997 575.272 454.148 576.932 439.112Z" fill="#E03D5B"/>
<path d="M585.585 426.036C585.585 426.036 589.348 425.851 589.606 423.207C589.846 420.562 591.285 406.469 605.933 409.114C616.504 411.019 616.578 420.858 616.578 423.299C616.578 425.74 612.925 434.821 613.405 436.893C613.884 438.964 609.494 436.893 609.494 436.893C609.494 436.893 605.029 442.755 603.572 443.162C602.114 443.569 594.717 438.354 594.477 435.746C594.089 431.363 589.846 437.965 587.891 437.355C585.935 436.726 582.541 430.031 585.585 426.036Z" fill="#F8C29C"/>
<path d="M585.585 426.036C585.585 426.036 558.964 427.498 553.835 453.464C548.707 479.43 553.835 495.168 553.835 495.168C553.835 495.168 569.443 496.186 576.767 493.855C584.09 491.507 572.284 473.068 586.175 459.863C597.281 449.321 585.585 426.036 585.585 426.036Z" fill="#FF5D7B"/>
<path d="M588.407 448.489C588.407 448.489 592.595 465.078 596.82 467.76C601.044 470.46 615.6 460.787 615.6 460.787C615.6 460.787 616.301 455.738 617.648 455.054C618.994 454.388 621.171 456.404 621.171 456.404C621.171 456.404 628.735 450.671 630.746 450.504C632.757 450.338 626.798 456.071 626.798 456.071C626.798 456.071 627.056 461.546 625.027 463.025C623.016 464.505 617.98 465.337 617.98 465.337C617.98 465.337 605.527 478.228 596.635 477.71C587.762 477.21 575.973 455.387 575.973 455.387C575.973 455.387 582.024 446.121 588.407 448.489Z" fill="#F8C29C"/>
<path d="M570.125 441.831C570.125 441.831 576.711 432.713 582.19 437.096C587.669 441.461 589.514 448.988 589.514 448.988L576.158 458.716C576.158 458.697 568.483 456.867 570.125 441.831Z" fill="#E03D5B"/>
<path d="M601.543 543.753L604.181 549.56L611.449 547.729L605.49 539.444C605.509 539.444 598.886 537.964 601.543 543.753Z" fill="#F8C29C"/>
<path d="M564.074 483.203C564.074 483.203 585.824 488.658 593.573 500.217C601.321 511.776 610.711 540.72 610.711 540.72L599.679 546.694L580.493 511.721L555.182 497.591C555.182 497.591 552.23 493.948 553.042 490.711C554.204 486.18 559.665 481.778 564.074 483.203Z" fill="#F4C43E"/>
<path d="M603.221 548.506C603.221 548.506 608.184 548.895 611.468 546.897C611.468 546.897 624.547 554.591 627.37 555.664C630.193 556.736 629.916 560.232 627.37 560.38C624.824 560.509 604.328 558.493 603.24 557.291C602.114 556.052 601.635 549.838 603.221 548.506Z" fill="#164454"/>
<path d="M614.733 541.811C614.733 541.811 619.696 542.2 622.979 540.202C622.979 540.202 636.059 547.896 638.882 548.969C641.704 550.041 641.428 553.537 638.882 553.685C636.336 553.814 615.84 551.798 614.751 550.596C613.626 549.375 613.146 543.143 614.733 541.811Z" fill="#164454"/>
<path d="M588.333 425.204C588.333 425.204 586.562 426.702 587.632 420.433C588.702 414.145 594.071 407.024 595.547 407.154C595.547 407.154 592.54 405.73 594.181 405.156C595.823 404.583 597.558 405.6 597.558 405.6C597.558 405.6 600.897 402.475 601.598 403.843C602.299 405.193 600.472 406.173 600.472 406.173C600.472 406.173 605.472 403.769 609.512 407.801C613.534 411.833 618.902 413.312 618.902 413.312C618.902 413.312 622.832 412.646 623.201 416.808C623.57 420.969 619.843 419.23 619.843 419.23C619.843 419.23 625.341 422.578 621.596 425.352C617.832 428.126 616.356 427.091 613.405 426.184C610.453 425.297 609.641 423.558 608.165 423.281C606.689 423.003 603.572 423.281 603.572 423.281C603.572 423.281 601.635 428.367 600.472 428.108C599.31 427.83 598.24 427.59 598.904 425.962C599.568 424.335 601.1 422.06 600.472 420.969C599.845 419.896 595.104 419.989 594.717 424.187C594.348 428.367 590.603 430.272 589.514 429.458C588.426 428.663 588.333 425.204 588.333 425.204Z" fill="#164454"/>
<defs>
<linearGradient id="paint0_linear_265_2832" x1="660.605" y1="173.802" x2="711.681" y2="182.426" gradientUnits="userSpaceOnUse">
<stop offset="0.191" stop-color="#47A2E9"/>
<stop offset="0.6581" stop-color="#8ABCF7"/>
</linearGradient>
<linearGradient id="paint1_linear_265_2832" x1="679.327" y1="299.185" x2="679.33" y2="203.035" gradientUnits="userSpaceOnUse">
<stop offset="0.2435" stop-color="#49687E"/>
<stop offset="1" stop-color="#DFF1FD"/>
</linearGradient>
<linearGradient id="paint2_linear_265_2832" x1="664.682" y1="257.51" x2="664.684" y2="177.866" gradientUnits="userSpaceOnUse">
<stop offset="0.2435" stop-color="#49687E"/>
<stop offset="1" stop-color="#DFF1FD"/>
</linearGradient>
<linearGradient id="paint3_linear_265_2832" x1="603.132" y1="325.964" x2="698.668" y2="325.964" gradientUnits="userSpaceOnUse">
<stop offset="0.191" stop-color="#47A2E9"/>
<stop offset="0.6581" stop-color="#8ABCF7"/>
</linearGradient>
<linearGradient id="paint4_linear_265_2832" x1="676.075" y1="507.479" x2="676.075" y2="336.691" gradientUnits="userSpaceOnUse">
<stop offset="0.2435" stop-color="#49687E"/>
<stop offset="1" stop-color="#DFF1FD"/>
</linearGradient>
<linearGradient id="paint5_linear_265_2832" x1="726.935" y1="495.903" x2="726.936" y2="332.341" gradientUnits="userSpaceOnUse">
<stop offset="0.2435" stop-color="#49687E"/>
<stop offset="1" stop-color="#DFF1FD"/>
</linearGradient>
<linearGradient id="paint6_linear_265_2832" x1="252.426" y1="470.557" x2="252.428" y2="304.276" gradientUnits="userSpaceOnUse">
<stop offset="0.2435" stop-color="#49687E"/>
<stop offset="1" stop-color="#DFF1FD"/>
</linearGradient>
<linearGradient id="paint7_linear_265_2832" x1="126.215" y1="375.923" x2="126.217" y2="273.517" gradientUnits="userSpaceOnUse">
<stop offset="0.2435" stop-color="#49687E"/>
<stop offset="1" stop-color="#DFF1FD"/>
</linearGradient>
<linearGradient id="paint8_linear_265_2832" x1="138.803" y1="339.364" x2="138.808" y2="192.503" gradientUnits="userSpaceOnUse">
<stop offset="0.2435" stop-color="#49687E"/>
<stop offset="1" stop-color="#DFF1FD"/>
</linearGradient>
<linearGradient id="paint9_linear_265_2832" x1="131.377" y1="312.905" x2="252.516" y2="312.905" gradientUnits="userSpaceOnUse">
<stop offset="0.191" stop-color="#47A2E9"/>
<stop offset="0.6581" stop-color="#8ABCF7"/>
</linearGradient>
<linearGradient id="paint10_linear_265_2832" x1="223.961" y1="494.473" x2="223.957" y2="405.079" gradientUnits="userSpaceOnUse">
<stop offset="0.2435" stop-color="#49687E"/>
<stop offset="1" stop-color="#DFF1FD"/>
</linearGradient>
</defs>
</svg>
